<svg transform="scale(1)" version="1.1" id="P6zVKg6vNR" xmlns="http://www.w3.org/2000/svg" xmlns:xlink="http://www.w3.org/1999/xlink" x="0px" y="0px" viewBox="0 0 500 500" xml:space="preserve" class="pbimage_pbimage__wrapper__image__0LEis false"><title>Inbox Empty</title><style type="text/css"> .st0{fill:#093F68;} .st1{fill:#68E1FD;} .st2{fill:#DFEAEF;} .st3{fill:#FFBC0E;}
 .st3{fill:#FFBC0E;}
 .st2{fill:#DFEAEF;}
 .st1{fill:#6cde89;}
 .st0{fill:#104d1f;}</style><g id="box"><path class="st0" d="M400.7,272.5l-59.4-80.2c-2.5-3.3-6.4-5.3-10.6-5.3H151.5c-4.2,0-8.1,2-10.6,5.3l-59.4,80.2v97.7
		c0,11,9,20,20,20h279.2c11,0,20-9,20-20L400.7,272.5z" fill="#104d1f"></path><path class="st0" d="M380.7,392.1H101.5c-12.1,0-21.8-9.8-21.8-21.8v-97.7c0-0.4,0.1-0.8,0.4-1.1l59.4-80.2
		c2.8-3.8,7.3-6.1,12.1-6.1h179.3c4.7,0,9.2,2.3,12,6.1l59.4,80.2c0.2,0.3,0.4,0.7,0.4,1.1v97.7
		C402.5,382.3,392.8,392.1,380.7,392.1z M83.3,273.1v97.1c0,10,8.2,18.2,18.2,18.2h279.2c10,0,18.2-8.2,18.2-18.2v-97.1l-59-79.7
		c-2.1-2.9-5.5-4.6-9.1-4.6H151.5c-3.6,0-7,1.7-9.1,4.6L83.3,273.1z" fill="#104d1f"></path><path class="st1" d="M400.7,272.5v97.7c0,11-9,20-20,20H101.5c-11,0-20-9-20-20v-97.7h86.4l8.1,40.2c1.5,7.4,8.1,12.8,15.6,12.8
		h99.9c7.7,0,14.3-5.5,15.7-13l7.5-39.9L400.7,272.5z" fill="#6cde89"></path><path class="st0" d="M380.7,392.1H101.5c-12.1,0-21.8-9.8-21.8-21.8v-97.7c0-1,0.8-1.8,1.8-1.8c0,0,0,0,0,0h86.4
		c0.9,0,1.6,0.6,1.8,1.5l8.1,40.2c1.3,6.6,7.1,11.3,13.9,11.4h99.9c6.8,0,12.7-4.9,13.9-11.6l7.5-39.9c0.2-0.9,0.9-1.5,1.8-1.5h85.9
		c1,0,1.8,0.8,1.8,1.8c0,0,0,0,0,0v97.7C402.5,382.3,392.7,392.1,380.7,392.1z M83.3,274.3v95.9c0,10,8.1,18.2,18.2,18.2h279.2
		c10,0,18.2-8.1,18.2-18.2v-95.9h-82.5l-7.2,38.5c-1.6,8.4-8.9,14.5-17.5,14.5h-99.9c-8.5,0-15.8-6-17.4-14.3l-7.8-38.7L83.3,274.3z
		" fill="#104d1f"></path><path class="st0" d="M151.6,350.5h-35.8c-1,0-1.8-0.8-1.8-1.8s0.8-1.8,1.8-1.8l0,0h35.8c1,0,1.8,0.8,1.8,1.8
		S152.6,350.5,151.6,350.5z" fill="#104d1f"></path></g><g id="lines"><path class="st2" d="M176.4,163c-1.1,0-2.2-0.5-2.9-1.4l-24.8-32.8c-1.3-1.5-1.1-3.8,0.4-5.1c1.5-1.3,3.8-1.1,5.1,0.4
		c0.1,0.1,0.2,0.2,0.2,0.3l24.8,32.8c1.2,1.6,0.9,3.9-0.7,5.1C178,162.7,177.2,163,176.4,163z"></path><path class="st2" d="M293.9,163c-2,0-3.6-1.6-3.6-3.6c0-0.8,0.3-1.6,0.7-2.2l24.8-32.8c1.1-1.7,3.4-2.1,5.1-1s2.1,3.4,1,5.1
		c-0.1,0.1-0.1,0.2-0.2,0.3l-24.8,32.8C296.1,162.5,295,163,293.9,163z"></path><path class="st2" d="M238,152c-2,0-3.6-1.6-3.6-3.6v-45.2c0.1-2,1.8-3.6,3.8-3.5c1.9,0.1,3.4,1.6,3.5,3.5v45.2
		C241.6,150.4,240,152,238,152z"></path></g><g id="speech-bubble"><path class="st3" d="M303.2,336.5h111.4c2.1,0,3.9,1.7,3.9,3.9v54.4c0,2.1-1.7,3.9-3.9,3.9H303.2c-2.1,0-3.9-1.7-3.9-3.9v-54.4
		C299.4,338.3,301.1,336.5,303.2,336.5z"></path><path class="st0" d="M411.4,400.5h-105c-4.9,0-8.9-4-8.9-8.9v-48c0-4.9,4-8.9,8.9-8.9h105c4.9,0,8.9,4,8.9,8.9v48
		C420.3,396.5,416.3,400.5,411.4,400.5z M306.4,338.4c-2.9,0-5.3,2.4-5.3,5.3v48c0,2.9,2.4,5.3,5.3,5.3h105c2.9,0,5.3-2.4,5.3-5.3
		v-48c0-2.9-2.4-5.3-5.3-5.3H306.4z"></path><path class="st0" d="M317.3,355.3h14v4.2h-9.4v3.8h8.9v4.2h-8.9v4.2h10v4.2h-14.6V355.3z"></path><path class="st0" d="M334.9,361.7h4.2v1.9h0.1c0.2-0.3,0.3-0.6,0.6-0.8c0.3-0.3,0.6-0.5,0.9-0.7c0.4-0.2,0.8-0.4,1.2-0.5
		c0.5-0.1,1-0.2,1.5-0.2c0.9,0,1.8,0.2,2.6,0.6c0.8,0.4,1.4,1.1,1.7,1.9c0.4-0.8,1-1.5,1.8-1.9c0.8-0.4,1.7-0.6,2.6-0.6
		c0.8,0,1.6,0.1,2.4,0.5c0.6,0.3,1.2,0.7,1.5,1.3c0.4,0.6,0.7,1.3,0.8,2c0.2,0.8,0.3,1.6,0.2,2.4v8.3h-4.4v-8.2
		c0-0.6-0.1-1.2-0.4-1.7c-0.3-0.5-0.9-0.8-1.5-0.7c-0.4,0-0.9,0.1-1.3,0.2c-0.3,0.1-0.6,0.4-0.8,0.7c-0.2,0.3-0.4,0.6-0.4,1
		c-0.1,0.4-0.1,0.8-0.1,1.2v7.5h-4.4v-7.5c0-0.2,0-0.6,0-0.9c0-0.3-0.1-0.7-0.2-1c-0.1-0.3-0.3-0.6-0.6-0.8
		c-0.3-0.3-0.7-0.4-1.1-0.4c-0.5,0-0.9,0.1-1.4,0.3c-0.3,0.2-0.6,0.5-0.8,0.8c-0.2,0.4-0.3,0.7-0.4,1.1c-0.1,0.4-0.1,0.9-0.1,1.3v7
		h-4.4L334.9,361.7z"></path><path class="st0" d="M360.5,361.7h4v1.9l0,0c0.2-0.3,0.4-0.5,0.7-0.8c0.3-0.3,0.6-0.5,1-0.7c0.4-0.2,0.8-0.4,1.2-0.5
		c0.5-0.1,0.9-0.2,1.4-0.2c1,0,1.9,0.2,2.9,0.5c0.8,0.3,1.6,0.9,2.2,1.5c0.6,0.7,1.1,1.5,1.4,2.3c0.3,0.9,0.5,1.9,0.5,2.9
		c0,1-0.1,1.9-0.5,2.8c-0.3,0.9-0.7,1.7-1.3,2.4c-0.5,0.7-1.2,1.3-2,1.7c-0.8,0.4-1.8,0.6-2.7,0.6c-0.9,0-1.7-0.1-2.5-0.4
		c-0.8-0.3-1.4-0.8-1.9-1.4h0v8.1h-4.4L360.5,361.7z M364.5,368.8c0,0.9,0.3,1.9,0.9,2.6c1.5,1.3,3.7,1.3,5.1,0
		c1.2-1.5,1.2-3.7,0-5.2c-1.5-1.3-3.7-1.3-5.1,0C364.8,366.9,364.5,367.8,364.5,368.8L364.5,368.8z"></path><path class="st0" d="M388,365.2h-3.8v4.7c0,0.4,0,0.7,0.1,1.1c0,0.3,0.1,0.6,0.3,0.8c0.1,0.2,0.4,0.4,0.6,0.5
		c0.4,0.1,0.7,0.2,1.1,0.2c0.3,0,0.6,0,0.9-0.1c0.3,0,0.6-0.1,0.9-0.3v3.6c-0.5,0.2-1,0.3-1.5,0.4c-0.5,0-1,0.1-1.5,0.1
		c-0.7,0-1.3-0.1-2-0.2c-0.6-0.1-1.1-0.4-1.6-0.7c-0.5-0.3-0.8-0.8-1.1-1.3c-0.3-0.6-0.4-1.3-0.4-2v-6.7h-2.8v-3.5h2.8v-4.2h4.4v4.2
		h3.8V365.2z"></path><path class="st0" d="M398.4,378.1c-0.3,0.8-0.6,1.4-0.8,2c-0.2,0.5-0.6,1-1,1.5c-0.5,0.4-1,0.7-1.6,0.9c-0.8,0.2-1.7,0.3-2.5,0.3
		c-1.1,0-2.2-0.2-3.2-0.5l0.6-3.6c0.6,0.3,1.3,0.4,2,0.4c0.4,0,0.8,0,1.2-0.2c0.3-0.1,0.6-0.2,0.8-0.5c0.2-0.2,0.4-0.5,0.5-0.7
		c0.1-0.3,0.3-0.6,0.4-1l0.4-0.8l-6.2-14.2h4.7l3.6,9.3h0.1l3.1-9.3h4.5L398.4,378.1z"></path></g></svg>