<svg transform="scale(1)" id="hAypl9LW0z" xmlns="http://www.w3.org/2000/svg" viewBox="0 0 500 500" class="pbimage_pbimage__wrapper__image__0LEis false"><title>Log In 1</title><defs><style> .cls-1{fill:#d6b2a4;} .cls-2{fill:#fff;} .cls-3{fill:#3c4368;} .cls-4{fill:#ffde91;} .cls-5{fill:#af93a2;} .cls-6{fill:#292e54;} .cls-7{fill:#e6e7e8;} .cls-8{fill:#bcbec0;}
 .cls-8{fill:#BCBEC0;}
 .cls-7{fill:#E6E7E8;}
 .cls-6{fill:#295433;}
 .cls-5{fill:#9fd7a8;}
 .cls-4{fill:#FFDE91;}
 .cls-3{fill:#3c6845;}
 .cls-2{fill:#FFFFFF;}
 .cls-1{fill:#7bc872;}</style></defs><g id="tablet"><path class="cls-6" d="M64.63,12.03c-6.75,.74-11.44,1.18-13.54,1.24-4.7,.14-10.11,1.2-12.88,13.03-1.81,7.73-1.88,17.83-1.87,27.07,.03,78.44,1.98,372.45,1.91,411.41,0,3.65,.02,7.49,.95,10.82,1.65,5.88,5.31,7.74,8.46,8.85,1.24,.44,3.47,1.14,6.53,2.06L64.63,12.03Z" fill="#295433"></path><g id="presentation"><path class="cls-5" d="M47.13,38.89c.4,63.56,.79,368,1.18,430.08,.04,6.59,.52,14.42,3.81,16.72,1.47,1.02,3.18,.63,4.82,.22,8.11-2.02,220.88-38.39,240.75-43.54,4.11-1.06,8.89-3.06,11.05-10.75,1.22-4.33,1.26-9.41,1.27-14.19,.04-48.7,2.54-312.67,2.59-362.34,0-5.44-.05-11.31-1.57-15.73-2.29-6.66-6.79-7.22-10.69-7.28-16.72-.25-228.91-18.56-239.73-20.61-9.72-1.84-13.58,11.08-13.48,27.42Z"></path></g><g id="presentation-2"><path class="cls-7" d="M69.09,87.2c.31,48.65,.5,282.27,.8,330.03,.03,5.08,.43,11.11,3.18,12.91,1.23,.81,2.67,.52,4.04,.23,6.81-1.45,13.56-2.89,20.26-4.32,21.16-4.52,168.51-22.95,185.83-26.79,3.59-.79,7.77-2.31,9.66-8.34,1.06-3.39,1.1-7.39,1.09-11.15,0-38.28,1.92-245.39,1.91-284.28,0-4.26-.06-8.85-1.39-12.29-2.01-5.17-5.93-5.54-9.33-5.51-14.55,.1-160.16-6.74-177.82-8.65-8.88-.96-17.88-1.69-26.95-3.07-8.13-1.24-11.36,8.72-11.28,21.23Z"></path></g><path class="cls-6" d="M147.18,39.88c-2.18,4.91-1.59,12.18,1.67,16.2,3.73,4.6,9.78,3.74,13.23-.74,2.31-3,3.68-7.59,3.05-12.05-1.75-12.4-13.99-12.35-17.95-3.41Z" fill="#295433"></path><path class="cls-6" d="M180.73,430.58c-2.08,5.19-1.52,12.03,1.57,15.18,3.54,3.61,9.3,1.46,12.59-3.58,2.21-3.38,3.51-8.08,2.91-12.23-1.66-11.52-13.3-8.81-17.07,.63Z" fill="#295433"></path><path class="cls-6" d="M173.26,50.04c.72,1.72,2.3,2.19,3.68,2.48,4.19,.88,8.37,1.6,12.52,2.47l45.14,3.29c1.41,.1,3.5-2.31,3.53-4.35,.03-2.04-1.11-3.88-2.42-4.7s-2.77-.86-4.18-.89c-11.46-.24-23.1-1.25-34.87-3.01-1.45-.22-28.2-6.73-23.41,4.72Z" fill="#295433"></path><path class="cls-6" d="M130.42,444.89c-1.11,1.32-2.2,2.8-2.08,4.42,.19,2.51,3.11,4.16,5.82,5.18,3,1.12,6.13,1.98,9.34,2.54,1.52,.27,3.36,.38,4.36-.63,.63-.64,.7-1.53,.75-2.36,.2-3.9,.3-7.8,.3-11.7,0-2.25,1.23-9.02-1.72-10.33-2.48-1.1-6.81,3.44-8.46,4.77-3.06,2.47-5.85,5.18-8.3,8.1Z" fill="#295433"></path><path class="cls-6" d="M228.08,436.39c-.11,1.53-.14,3.27,.95,4.36,1.27,1.27,3.36,.99,5.12,.6,3.14-.7,6.28-1.45,9.4-2.24,2.68-.68,5.58-1.56,7.12-3.85,1.28-1.9,1.33-4.35,1.33-6.64,0-3.26,0-6.51,0-9.77,0-1.17-.07-2.49-.95-3.25-1.02-.87-2.56-.55-3.85-.17-3.19,.93-6.38,1.86-9.57,2.79-2.13,.62-5.73,.93-7.46,2.42s-1.3,4.25-1.43,6.26c-.22,3.14-.65,6.34-.65,9.48Z" fill="#295433"></path></g><g id="character"><path class="cls-7" d="M335.5,471.66c-3.67,1.34-7.89,3.97-7.47,7.86,.44,4.17,5.65,5.68,9.81,6.19,25.42,3.11,52.14,6.07,75.89-3.51,3.95-1.59,8.47-5.14,6.95-9.11-1.07-2.8-4.53-3.69-7.49-4.13-23.81-3.52-54.68-5.67-77.68,2.71Z"></path><path class="cls-4" d="M432.47,265.26c-.38,2.84-.12,6.29,2.34,7.77,2.39,1.44,5.67,.05,7.25-2.25s1.9-5.21,2.17-7.98c2.11,2.28,2.93,5.43,3.54,8.47,.61,3.04,1.12,6.2,2.79,8.82s4.88,4.54,7.86,3.66c3.49-1.03,4.95-5.2,5.19-8.83,.74-10.95-5.35-22.08-14.97-27.37-10.3-5.67-15.11,9.82-16.16,17.71Z"></path><path class="cls-3" d="M354.57,468.56c-2.15,1.84-4.41,4.48-3.52,7.17,.95,2.89,4.71,3.5,7.76,3.57,10.73,.22,21.48-.16,32.17-1.14,4.53-.41,9.81-1.45,11.75-5.57,1.95-4.14-.65-8.88-3.16-12.7-2.37-3.61-5.48-8.43-10.16-9.17-3.61-.57-7.34,2.02-10.61,3.35-8.8,3.58-16.99,8.3-24.23,14.49Z"></path><path class="cls-1" d="M277.98,322.3c-18.95,22.55-28.76,52.55-26.87,81.93,7.97,0,5.36-1.24,13.33-1.25,1.3-23.9,10.53-46.02,26.68-63.68,16.15-17.66,38.54-29.5,62.23-32.92-7.21,22.49-12.29,46.32-8.77,69.67,4.33,28.72,21.12,53.85,37.14,78.01,.78,1.17,1.72,2.24,2.88,3.03,4.37,2.97,8.26,.72,11.39-2.36,1.39-1.36,1.61-3.5,.55-5.13-11.6-17.67-21.09-36.91-25.82-57.49-4.97-21.6-4.49-44.81,3.8-65.37,3.03-7.51,7.07-14.67,9.03-22.53,1.95-7.86,1.46-16.92-3.8-23.07-4.83-5.64-12.8-6.39-19.35-3.64-6.36,2.68-11.42,4.68-18.32,6.19-15.87,3.49-30.97,10.35-44.09,19.94-7.38,5.4-14.13,11.66-20.02,18.66Z"></path><path class="cls-4" d="M246.04,230.69c-9.74,1.83-18.62,9.98-19.06,19.88-.18,4.04,1.29,8.46,4.79,10.49,3.5,2.02,8.99,.26,9.6-3.74-.51,3.02-.56,6.96,2.25,8.19,1.68,.73,3.67,.03,5.1-1.1,1.44-1.13,2.52-2.65,3.87-3.88,2.86-2.62,6.72-3.79,10.41-4.99,3.69-1.2,7.52-2.62,10.06-5.55,4.3-4.95,2.64-11.45-2.56-14.44-7.23-4.16-16.17-6.41-24.46-4.86Z"></path><path class="cls-4" d="M358.34,108.94c-3.31,.26-6.69,.89-9.49,2.69-4.11,2.65-6.32,7.43-7.79,12.1-3.69,11.74-4.01,24.51-.92,36.41,1.48,5.71,4.59,11.99,10.38,13.15,6.06,1.22,11.46-3.82,15.23-8.72,8.64-11.26,15.1-24.18,18.9-37.85,1.6-5.75,2.48-11.32-3.43-14.31-6.67-3.38-15.58-4.05-22.89-3.47Z"></path><path class="cls-6" d="M343.85,137.45c.11,.74,.58,1.6,1.33,1.54,.64-.05,.99-.74,1.23-1.33,.35-.88,.7-1.8,.61-2.74-.1-1.01-1.09-2.35-2.12-1.71-1.02,.64-1.2,3.22-1.04,4.24Z"></path><path class="cls-6" d="M350.9,156.2c.25-.24,.58-.51,.89-.36,.27,.13,.32,.48,.32,.78,0,1.48-.4,2.99-1.32,4.15-.92,1.16-2.37,1.94-3.85,1.86-1.85-.1-4.21-1.97-1.71-3.02,2.11-.89,4-1.79,5.67-3.41Z"></path><path class="cls-6" d="M367.3,99.22c5.1-1.99,11.63-1.58,17.2,1.07,9.35,4.45,14.55,13.86,18.12,22.59,3.57,8.72,6.7,18.11,14.38,24.84,9.86,8.64,25.05,10.88,33.93,20.3,1.28,1.35,2.41,2.88,2.82,4.52,.41,1.64-.05,3.41-1.5,4.21-1.98-3.63-5.97-6.57-10.24-7.55,7.62,5.18,9.95,15.34,5.49,21.52-4.45,6.17-14.53,7.97-23.19,4.8,3.02,.19,5.57-1.97,5.49-4.64s-2.77-5.46-5.8-6c3,3.4,.86,8.18-3.03,9.65-3.89,1.47-8.71,.63-13.22-.23,3.69-1.29,4.07-6.16,1.64-9.55-2.43-3.39-6.74-5.44-10.9-6.67s-8.46-1.86-12.53-3.46c-5.59-2.2-10.41-6.11-14.26-10.49s-6.82-9.24-9.73-14.08c-4.03-6.71-8.06-13.59-9.53-20.77-1-4.87-.65-9.91,1.57-14.02,1.01-1.88,3.12-3.18,3.98-5.04,.99-2.12,1.29-4.28,2.8-6.19,1.63-2.08,3.86-3.75,6.51-4.78Z"></path><path class="cls-4" d="M355.27,140.79c.75-1.62,1.54-3.27,2.81-4.53,1.27-1.25,3.15-2.05,4.87-1.56,1.31,.37,2.34,1.45,2.86,2.71,.52,1.26,.56,2.67,.32,4.01-.73,4.21-4.32,7.77-8.54,8.47"></path><path class="cls-3" d="M348.49,96.69c-6.8,.85-13.69,3.61-17.83,9.07-4.14,5.46-4.61,13.97,.2,18.84,.74-4.24,2.4-8.31,4.83-11.86-.7,4.78,.16,9.77,2.42,14.03,.36,.67,.87,1.4,1.63,1.44,.82,.04,1.41-.76,1.84-1.46,1.78-2.92,3.55-5.83,5.33-8.75,.46,3.4,1.73,6.69,3.67,9.52,.58,.85,1.34,1.72,2.36,1.81,1.38,.11,2.39-1.22,3.08-2.41,3.89-6.69,8.04-15.27,8.71-23.11,.61-7.17-11.42-7.72-16.24-7.12Z"></path><path class="cls-8" d="M365.16,177.94c-2.99,1.44-5.05,4.96-6.15,8.78-1.1,3.82-1.36,7.97-1.7,12.05-1.5,17.94-4.67,35.57-9.42,52.39-1.4,4.96-2.95,9.92-3.4,15.21-.45,5.29,.34,11.08,3.12,15.23,3.31,4.93,8.65,6.6,13.62,7.36,11.22,1.72,22.47,.35,33.62-1.03,2.6-.32,5.33-.7,7.41-2.63,2.31-2.14,3.42-5.88,3.57-9.58,.15-3.7-.53-7.4-1.2-11.05-2.76-14.91-5.54-29.88-9.96-44.22-3.27-10.62-7.48-20.92-13.01-30.02-3.8-6.25-9.3-15.98-16.49-12.51Z"></path><path class="cls-3" d="M377.78,343.92c21.41-2.61,42.54-8.32,62.73-16.93-9.35-17.49-18.73-35.07-25.56-54.04-10.34-28.73-15.02-61-31.96-85.23-2.38-3.41-5.03-6.66-8.33-8.82-2.98-1.96-9.37-4.36-11.25-.42-.55,1.14-.23,5.62-.45,7.23-.45,3.2-.86,6.41-1.22,9.63-1.34,11.99-2.04,24.08-2.12,36.17-.14,24.48,2.3,48.99,7.28,72.79,2.82,13.48,6.45,26.73,10.88,39.62Z"></path><path class="cls-3" d="M360.59,179.55c-1.43,1.37-2.43,3.11-3.48,4.79-9.2,14.7-23.34,25.91-38.97,33.43-15.63,7.52-32.75,11.52-49.93,13.84,1.14,7.64,2.27,15.28,3.41,22.93,27.49-4.34,53.77-16.06,75.37-33.6,6.01-4.88,11.71-10.25,16.1-16.63,4.01-5.81,7.28-12.93,7.77-20.07,.41-5.98-5.62-9.14-10.27-4.68Z"></path><path class="cls-3" d="M450.22,243.94c-5.37,4.97-10.73,9.94-16.1,14.91-10.69-19.91-24.8-37.97-41.55-53.14-3.86-3.49-19.72-14-18.47-19.71,1.7-7.77,16.81,1.57,20.37,3.39,15.16,7.76,28.78,18.5,39.88,31.41,1.68,1.95,17.48,21.64,15.86,23.13Z"></path><path class="cls-2" d="M452.51,265.1c-4.3,0-8.58-1.72-11.6-4.82-.19-.2-.19-.51,0-.71,.2-.19,.52-.19,.71,0,3.7,3.78,9.39,5.38,14.51,4.06,.26-.07,.54,.09,.61,.36,.07,.27-.09,.54-.36,.61-1.27,.33-2.58,.49-3.88,.49Z"></path><path class="cls-2" d="M457.94,283.92s-.02,0-.03,0c-.28-.02-.49-.25-.47-.53,.36-6.11-1.22-12.33-4.44-17.53-.15-.23-.07-.54,.16-.69,.23-.14,.54-.07,.69,.16,3.33,5.37,4.96,11.81,4.59,18.12-.02,.27-.24,.47-.5,.47Z"></path><path class="cls-2" d="M240.51,258.13c-.05,0-.1,0-.15-.02-.26-.09-.41-.37-.32-.63,1.26-3.88,1.34-8.18,.24-12.11-.06-.2,.01-.41,.18-.53,.16-.12,.38-.14,.56-.03,5.19,3.09,11.54,4.08,17.42,2.71,.27-.06,.54,.11,.6,.37,.06,.27-.11,.54-.37,.6-5.75,1.33-11.93,.51-17.14-2.25,.84,3.8,.66,7.86-.54,11.55-.07,.21-.26,.35-.48,.35Z"></path><path class="cls-6" d="M381.69,302.41c1.09,1.26,2.8,1.74,4.43,2.11,6.02,1.36,12.21,1.99,18.38,1.86,2.68-.06,5.94-.67,6.81-3.2,.89-2.57-1.58-5.25-4.23-5.87s-5.4,.09-8.12,.29c-5.11,.37-9.4-1.56-14.29-2.43-4.16-.74-5.54,4.3-2.99,7.24Z"></path><path class="cls-2" d="M360.65,207.33c-.16,0-.32-.08-.42-.22-.15-.23-.09-.54,.14-.69,.89-.59,1.42-1.64,1.97-2.75,.7-1.4,1.42-2.84,2.97-3.37,1.24-.42,2.76-.05,3.96,.96,1.03,.87,1.72,2.07,2.34,3.13,.14,.24,.06,.54-.18,.68-.24,.14-.54,.06-.68-.18-.6-1.03-1.22-2.1-2.12-2.86-.73-.62-1.91-1.15-2.99-.78-1.16,.39-1.76,1.59-2.4,2.87-.59,1.18-1.2,2.39-2.31,3.13-.08,.06-.18,.08-.28,.08Z"></path><path class="cls-2" d="M393.19,206.13c-.19,0-.38-.11-.46-.3-2.52-5.95-5.81-11.55-9.77-16.66-.17-.22-.13-.53,.09-.7,.22-.17,.53-.13,.7,.09,4.02,5.17,7.35,10.85,9.9,16.88,.11,.25-.01,.55-.26,.66-.06,.03-.13,.04-.2,.04Z"></path><path class="cls-2" d="M353.45,307.62c-.09,0-.17-.02-.25-.07-.24-.14-.32-.45-.18-.68,1.21-2.08,1.32-4.82,.28-6.99-1.04-2.17-3.26-3.79-5.63-4.14-.27-.04-.46-.29-.42-.57,.04-.27,.3-.46,.57-.42,2.74,.4,5.19,2.2,6.39,4.7,1.2,2.5,1.08,5.53-.31,7.93-.09,.16-.26,.25-.43,.25Z"></path></g><g id="interface"><g><path class="cls-8" d="M141.64,99.17s-.09,0-.14,0l-45.35-2.43c-1.38-.07-2.44-1.25-2.36-2.63,.07-1.38,1.23-2.44,2.63-2.36l45.35,2.43c1.38,.07,2.44,1.25,2.36,2.63-.07,1.33-1.17,2.37-2.49,2.37Z"></path><path class="cls-8" d="M141.14,112.2s-.08,0-.12,0l-44.29-2.12c-1.38-.07-2.44-1.24-2.38-2.62,.07-1.38,1.22-2.44,2.62-2.38l44.29,2.12c1.38,.07,2.44,1.24,2.38,2.62-.06,1.34-1.17,2.38-2.5,2.38Z"></path><path class="cls-8" d="M141.86,126.5s-.07,0-.11,0l-45.73-1.91c-1.38-.06-2.45-1.22-2.39-2.6,.06-1.38,1.19-2.45,2.6-2.39l45.73,1.91c1.38,.06,2.45,1.22,2.39,2.6-.06,1.34-1.16,2.4-2.5,2.4Z"></path></g><path class="cls-8" d="M167.92,106.75c-.43,.52-.87,1.23-.51,1.84,.31,.53,1.03,.65,1.65,.71,2.67,.26,5.34,.53,8,.79-.17,5.1-.35,10.21-.52,15.32-.04,1.12-.06,2.31,.55,3.29,1.14,1.86,3.79,2.07,5.99,2.06,6.05-.04,12.06-.08,18.04-.13,1.37,0,2.87-.06,3.86-.94,1.1-.97,1.19-2.61,1.18-4.08-.03-5.19-.37-10.39-1.04-15.57,1.29-.6,2.85-.19,4.31-.04,1.45,.16,3.21-.14,3.69-1.44,.5-1.34-.67-2.77-1.74-3.84-4.76-4.77-9.55-9.56-14.35-14.36-1.18-1.19-2.46-2.43-4.08-2.88-4.69-1.33-9.21,4.06-12.26,6.55-4.66,3.82-8.94,8.08-12.77,12.73Z"></path><g><path class="cls-8" d="M257.34,127.05c-1.6,0-3.22-.27-4.78-.82-5.25-1.87-9.31-6.84-10.12-12.37-.79-5.43,1.57-11.01,6.01-14.21h0c3.97-2.86,10.89-4.39,15.62-1.99,5.83,2.96,7.44,10.04,7.04,15.21-.3,3.9-1.44,7.09-3.4,9.48-2.48,3.03-6.37,4.71-10.38,4.71Zm1.33-25.58c-2.55,0-5.48,.92-7.29,2.23h0c-2.9,2.09-4.5,5.89-3.99,9.44,.54,3.69,3.35,7.13,6.85,8.38,3.45,1.23,7.49,.25,9.61-2.34,1.3-1.59,2.07-3.84,2.28-6.7,.3-3.92-.92-8.65-4.32-10.38-.87-.44-1.97-.64-3.14-.64Zm-8.75,.2h0Z"></path><path class="cls-8" d="M236.23,133.55c-.67,0-1.33-.26-1.82-.79-.95-1.01-.9-2.59,.11-3.53,3.99-3.76,8.26-7.3,12.68-10.52,1.12-.81,2.68-.57,3.49,.54,.81,1.12,.57,2.68-.54,3.49-4.25,3.11-8.36,6.51-12.2,10.13-.48,.45-1.1,.68-1.71,.68Z"></path></g></g></svg>