<svg transform="scale(1)" version="1.1" id="Ur5Z3h4h0c" xmlns="http://www.w3.org/2000/svg" xmlns:xlink="http://www.w3.org/1999/xlink" x="0px" y="0px" viewBox="0 0 500 500" xml:space="preserve" class="pbimage_pbimage__wrapper__image__0LEis false"><title>Reset Password</title><style type="text/css"> .st0{fill:#FFFFFF;} .st1{fill:#111111;} .st2{fill:#128FFF;}
 .st2{fill:#59b36b;}
 .st1{fill:#111111;}
 .st0{fill:#FFFFFF;}</style><g id="shadow"><path class="st0" d="M262.4,470.4c-3.2,1.8-6.7,4.3-7.1,8c-0.3,3.1,1.9,6,4.6,7.5s5.9,1.8,9,2.1c10.4,0.9,20.9,1.3,31.3,1.1
		c7.5-0.1,15.8-0.8,21.2-6.1c2.7-2.6,4.3-6.1,7-8.7c8.2-7.8,21.3-4.3,32.6-4.4c5.2,0,11.2-1.5,13.6-6.1
		c10.5-20.7-34.6-15.1-43.3-14.4C307.2,451.2,283.6,458.4,262.4,470.4z" fill="#FFFFFF"></path><path class="st1" d="M295.1,489.8c-8.7,0-17.5-0.4-26.1-1.1c-3.3-0.3-6.5-0.7-9.3-2.2s-5.4-4.6-5-8.2c0.4-4.1,4.2-6.7,7.5-8.6
		l0.4,0.6l-0.4-0.6c21.3-12,45-19.3,69.3-21.2l2.2-0.2c9.9-0.9,36.2-3.3,42.2,5.5c1.8,2.7,1.7,6.1-0.4,10.2
		c-2.9,5.7-10.2,6.5-14.3,6.5c-2.7,0-5.6-0.2-8.3-0.4c-8.7-0.6-17.8-1.2-23.8,4.5c-1.3,1.3-2.5,2.8-3.5,4.3c-1,1.6-2.2,3-3.5,4.4
		c-5.4,5.3-13.6,6.2-21.7,6.3C298.6,489.8,296.8,489.8,295.1,489.8z M262.8,471c-3,1.7-6.4,4-6.7,7.4c-0.3,2.9,1.9,5.5,4.2,6.7
		c2.5,1.4,5.4,1.7,8.7,2c10.4,0.9,20.8,1.2,31.3,1.1c7.7-0.1,15.6-0.9,20.6-5.9c1.2-1.3,2.4-2.7,3.4-4.2c1.1-1.6,2.3-3.1,3.7-4.5
		c6.5-6.2,15.8-5.5,24.9-4.9c2.7,0.2,5.6,0.4,8.2,0.4c3,0,10.4-0.6,13-5.7c1.8-3.6,2-6.5,0.5-8.7c-5.5-8.1-32.1-5.7-40.9-4.9
		l-2.2,0.2C307.4,451.9,283.9,459.1,262.8,471L262.8,471z" fill="#111111"></path><path class="st0" d="M373.9,437.3c-2.2,1.3-4.5,3.1-4.4,5.6c0.1,2.7,3,4.4,5.6,5c7.5,1.8,16.1-0.1,22.5,4.3
		c3.2,2.3,5.3,5.9,8.3,8.5c5.2,4.5,12.7,5.5,19.6,5.3c8.9-0.4,17.6-2.5,25.6-6.3c3.4-1.6,6.8-3.6,9-6.7s3-7.5,1-10.7
		c-1.8-2.8-5.1-4.1-8.3-5.3c-12.2-4.4-25.5-11.3-38.8-11c-6.2,0.2-12.8,1.6-18.8,3C389.2,430.4,379.6,437.3,373.9,437.3z" fill="#FFFFFF"></path><path class="st1" d="M423.4,466.7c-7.8,0-13.8-1.9-18-5.5c-1.3-1.2-2.5-2.5-3.6-3.8c-1.3-1.7-2.9-3.3-4.6-4.6
		c-3.8-2.6-8.5-2.9-13.4-3.2c-3-0.1-5.9-0.4-8.8-1c-2.9-0.7-6.1-2.6-6.2-5.7c-0.1-2.3,1.5-4.4,4.8-6.3c0.1-0.1,0.2-0.1,0.4-0.1
		c3,0,7.5-2.2,11.7-4.3c3.5-1.7,6.7-3.3,9.5-4c6.2-1.4,12.7-2.8,18.9-3c10.5-0.3,20.7,3.8,30.7,7.8c2.9,1.2,5.6,2.2,8.4,3.2
		c3.5,1.3,6.8,2.6,8.6,5.6c2.3,3.7,1.2,8.5-1,11.5c-2.5,3.4-6.3,5.5-9.3,6.9c-8.1,3.8-16.9,6-25.9,6.4
		C424.8,466.6,424.1,466.7,423.4,466.7z M374.1,438c-2.7,1.6-4,3.2-3.9,4.8c0.1,2.3,2.8,3.7,5,4.3c2.8,0.6,5.7,0.9,8.5,1
		c4.9,0.3,10,0.5,14.2,3.4c1.8,1.4,3.5,3,4.9,4.9c1.1,1.3,2.2,2.5,3.4,3.7c4.3,3.7,10.7,5.4,19.1,5.1c8.8-0.4,17.4-2.5,25.3-6.2
		c2.9-1.4,6.5-3.3,8.8-6.5s2.6-7.1,0.9-9.8s-4.6-3.8-7.9-5c-2.8-1-5.5-2.1-8.4-3.2c-9.8-3.9-19.9-8-30.1-7.7c-6,0.1-12.5,1.5-18.6,3
		c-2.6,0.6-5.9,2.2-9.2,3.9C382,435.7,377.5,437.9,374.1,438z" fill="#111111"></path></g><g id="phone"><path class="st2" d="M212.5,44.3c-5.2-5.6-12.5-7.4-19.2-9c-22.6-5.2-128.5-21.6-155-23.9c-8.3-0.7-17.3-1.3-22.6,3.4
		c-6.1,5.3-5.2,15.6-4.1,25c13.8,114.9,28.4,236,43.8,363.4c2.1,17.1,5,36.1,17.5,47.1c13.4,11.7,32.3,9.8,48.6,7.3l50.4-7.7
		l47.1-6.2c14-1.8,29.2-4.6,37-17.8c7.1-11.9,5.5-28.5,3.7-43.3C246,272.1,233.1,167.1,220.8,67.7C219.8,59.5,218.3,50.6,212.5,44.3
		z"></path><g id="phone-2"><path class="st1" d="M225.3,45.8c-4.9-5.5-11.9-7.4-18.3-8.9C185.5,31.7,84.8,15.3,59.5,13.1C51.6,12.4,43,11.8,38,16.4
			c-5.8,5.3-5,15.6-3.9,24.9c13.2,114.5,27.1,235.2,41.8,362.2c2,17.1,4.8,36,16.7,47c12.7,11.7,30.7,9.7,46.2,7.2l48-7.7l44.9-6.2
			c13.2-1.9,27.8-4.7,35.1-17.7c6.7-11.9,5.2-28.4,3.5-43.2c-13-110.1-25.3-214.7-37-313.8C232.2,61,230.9,52,225.3,45.8z"></path><path class="st0" d="M218.6,50.4c-4.5-4.9-10.9-6.5-16.8-7.9c-19.7-4.6-111.2-19-134-20.9C60.7,21,53,20.5,48.4,24.5
			c-5.2,4.6-4.4,13.5-3.5,21.7c11.8,99.3,24.2,203,37.1,311.2c1.7,14.5,4.2,30.5,14.7,40.1c11.3,10.2,27.3,9,41.1,7.3l43-5.2
			l40.5-4.1c12-1.2,25.2-3.2,32-14.2c6.2-10,5-24.2,3.6-36.9C246,249.1,235.6,158,225.6,71C224.8,63.8,223.6,56,218.6,50.4z"></path><path class="st1" d="M178.6,35.8c-2.1-0.6-5.4-1.1-8.5-1.6c-10.2-1.7-56-9-67-10.6c-3.4-0.5-7.1-1.1-9.4-1.2
			c-2.6-0.1-2.6,0.3-2.5,0.7c1.8,4.9,3.7,9.8,5.5,14.7c0.2,0.6,0.7,1.3,5,2.4c4.5,1.1,11.7,2.2,17.9,3.1l19.8,2.9l19.3,2.9
			c5.9,0.9,12.4,1.8,16.4,2c3.7,0.2,4-0.4,4.1-1c0.6-4.3,1.2-8.5,1.9-12.8C181,36.9,180.9,36.4,178.6,35.8z"></path><path class="st2" d="M174.2,419.9c-1.1,8.3,3.4,17.6,9.7,20s13.2-2.6,15-10.5C203.9,407.2,177.4,396.8,174.2,419.9z"></path></g><g id="phone-3"><path class="st1" d="M225.2,44.8c-5-5.5-11.9-7.4-18.3-8.9C185.4,30.7,84.7,14.3,59.4,12c-7.9-0.7-16.5-1.3-21.5,3.4
			c-5.8,5.3-5,15.5-3.9,24.9c13.2,114.5,27.1,235.2,41.8,362.1c2,17.1,4.8,36,16.7,47c12.7,11.7,30.7,9.7,46.2,7.3l48-7.6l44.9-6.2
			c13.3-1.8,27.8-4.6,35.1-17.7c6.7-11.9,5.2-28.4,3.5-43.2c-13-110.1-25.3-214.6-37-313.7C232.1,60,230.8,51.1,225.2,44.8z
			 M225.5,70.1c10,87.1,20.5,178.2,31.4,273.3c1.5,12.7,2.7,26.9-3.6,36.9c-6.8,11-20,13-32,14.2l-40.5,4.1l-43,5.2
			c-13.8,1.7-29.8,2.8-41.1-7.4c-10.6-9.6-13-25.6-14.7-40.1C69,248,56.7,144.3,44.8,45.1c-1-8.1-1.7-17,3.5-21.6
			c4.5-4,12.3-3.5,19.3-2.9c22.8,2,114.3,16.5,134,21c5.9,1.4,12.2,3,16.8,7.9C223.6,55,224.7,62.9,225.5,70.1L225.5,70.1z"></path><path class="st1" d="M178.5,34.8c-2.1-0.5-5.4-1.1-8.5-1.6c-10.2-1.7-56-9-67-10.7c-3.4-0.5-7.1-1.1-9.4-1.2
			C91,21.2,91,21.6,91.1,22l5.5,14.7c0.2,0.6,0.7,1.4,5,2.4c4.6,1.1,11.7,2.2,17.9,3.1l19.9,2.9l19.2,2.9c5.9,0.9,12.4,1.8,16.4,2
			c3.7,0.2,4-0.4,4.1-1c0.6-4.2,1.2-8.5,1.8-12.7C180.9,35.9,180.8,35.5,178.5,34.8z"></path><path class="st0" d="M174.1,418.8c-1.1,8.3,3.4,17.6,9.7,20s13.2-2.6,15-10.5C203.8,406.1,177.3,395.8,174.1,418.8z"></path></g></g><g id="interface"><g id="lock"><path class="st2" d="M124.2,124.4c-1,0.1-2.1,0.4-2.9,1.1c-1.2,1.2-0.8,3.2-0.1,4.9s1.6,3.4,1.2,5.1c-3.9,0.2-8.4,0.9-9.9,4.2
			c-1,2.3-0.2,5.1,0.9,7.5c5.4,12.3,17.4,21.9,30.6,27.4c4.9,2,10.2,3.6,15.2,3.2c6.7-0.5,12.2-4.3,16.6-8.6
			c6.1-5.9,11-13.1,12.5-21.4c0.6-3.1,0.6-6.8-1.8-9.5c-3-3.4-8.1-3.8-12.6-3.9c0.9-1.7,1.8-3.4,1.6-5.4c-0.5-4.5-5-3.6-8.2-4.2
			c-5-0.8-9.9-1.4-14.8-1.7C143.1,122.4,133.6,122.9,124.2,124.4z"></path><path class="st0" d="M145,136.9c-2,2.5-1.9,6.2-0.7,9.4c1.2,2.6,2.8,5,4.8,7.1c0.8,0.7,0.9,2,0.2,2.8c-1.6,1.7-3,3.7-4,5.8
			c-0.4,1.3,0.2,2.6,1.5,3.1c0.2,0.1,0.5,0.1,0.7,0.1c4.8,0.3,9.7-0.2,14.3-1.4c1-0.3,1.7-1.3,1.4-2.4c-0.1-0.3-0.2-0.5-0.4-0.7
			l-4.1-5.8c-0.5-0.7-0.5-1.7,0-2.4c1.3-1.5,2.3-3.1,3.1-4.9c2-5-0.6-8.9-5.5-11.9C152.8,133.3,147.4,133.8,145,136.9z"></path><path class="st1" d="M150.2,166c-0.9,0-1.7,0-2.6-0.1c-1.1-0.1-2.1-0.7-2.6-1.6c-0.5-0.8-0.6-1.8-0.2-2.7c1-2.2,2.4-4.2,4.1-6
			c0.4-0.5,0.4-1.3-0.2-1.8c-2.1-2.1-3.8-4.6-5-7.3c-1.5-3.7-1.2-7.6,0.8-10.1c2.6-3.3,8.3-4,12.4-1.4c5.9,3.6,7.8,7.9,5.8,12.9
			c-0.8,1.9-1.9,3.6-3.3,5.1c-0.3,0.5-0.3,1.1,0.1,1.5l4.1,5.8c0.6,0.8,0.7,1.7,0.4,2.6c-0.3,0.8-1,1.4-1.8,1.6
			C158.3,165.5,154.2,166,150.2,166z M151.3,134.9c-2.2-0.1-4.2,0.8-5.7,2.4l0,0c-1.6,2.1-1.9,5.4-0.6,8.7c1.1,2.6,2.7,4.9,4.7,6.9
			c1.1,1,1.2,2.7,0.2,3.8c-1.6,1.6-2.9,3.5-3.8,5.6c-0.2,0.4-0.1,0.9,0.1,1.3c0.3,0.5,0.9,0.8,1.4,0.9c4.7,0.3,9.5-0.2,14.1-1.4
			c0.4-0.1,0.7-0.3,0.8-0.7c0.1-0.4,0.1-0.9-0.2-1.3l-4.1-5.8c-0.8-1-0.8-2.4,0-3.4c1.2-1.4,2.2-3,3-4.7c1.7-4.2,0-7.8-5.2-11
			C154.6,135.4,153,134.9,151.3,134.9L151.3,134.9z M145,136.9L145,136.9z"></path><path class="st2" d="M135.4,100.4c1.9-2.9,4.7-5.2,7.9-6.7c3.6-1.5,7.7-1.4,11.2,0.1c3.2,1.6,5.8,3.9,7.8,6.9
			c5.2,7.4,6.6,16.1,7.6,24.3c0.2,1,0.2,2-0.1,3c-0.3,1-1.2,1.6-2.3,1.6c-1-0.2-1.9-0.8-2.4-1.7c-0.4-0.9-0.7-1.8-0.9-2.8
			c-1.3-5.6-3.6-11.1-5.9-16.6c-0.7-1.9-1.7-3.8-2.9-5.5c-1.3-1.8-3-3.1-5.1-3.9c-3-0.8-6.1,0.2-8.1,2.4c-2.9,3-4.3,7.1-4.9,11.3
			s-0.8,8.6-1.5,12.8c-0.3,1.4-0.7,2.8-1.9,3.5c-3.1,1.7-3.8-2.1-4.1-3.9c-0.4-3-0.5-6-0.1-8.9C130.1,110.6,132.1,105.1,135.4,100.4
			z"></path></g><path class="st1" d="M132.9,235.2c-0.6,2,0.2,4.1,1.9,5.3c1.8,1.2,4.1,1.3,5.9,0.2c1.7-1.1,2.4-3.2,1.8-5.1
		c-0.9-1.9-2.6-3.3-4.7-3.8C135.7,231.7,133.5,233.6,132.9,235.2z"></path><path class="st1" d="M148.8,234.5c-0.6,2,0.1,4.1,1.8,5.2c1.7,1.2,4,1.3,5.8,0.2c1.6-1.1,2.3-3.1,1.7-5c-0.8-1.9-2.6-3.3-4.6-3.7
		C151.4,231,149.3,232.9,148.8,234.5z"></path><path class="st0" d="M85,201.8c-3.3,4-2.7,9.8,1.3,13c0.2,0.1,0.3,0.3,0.5,0.4c4.6,3.6,11.7,4.2,18.1,4.4
		c33.8,1.4,67.7,0.9,101.4-1.7c6.5-0.5,13.3-1.2,18.4-4.1s7.6-8.9,3.9-13.3c-2-2.3-5.4-3.8-8.9-4.5c-3.5-0.6-7-0.8-10.5-0.7
		c-34.8,0-69.9,0.1-105.3,0.1C96.5,195.5,89,196.9,85,201.8z"></path><path class="st1" d="M142.7,221.2c-12.4,0-25-0.3-37.9-0.8c-6.4-0.3-13.7-0.9-18.5-4.6c-2.3-1.7-3.8-4.3-4.1-7.1
		c-0.3-2.7,0.5-5.3,2.2-7.4c3.6-4.3,10.1-6.6,19.4-6.6h1.8c24,0,47.9,0,71.7-0.1l31.8-0.1c3.6-0.1,7.2,0.1,10.7,0.7
		c4.1,0.8,7.4,2.5,9.3,4.8c1.6,1.8,2.3,4.2,1.9,6.5c-0.7,3.4-2.9,6.2-5.9,7.9c-5.1,3-11.8,3.7-18.7,4.2
		C185.9,220.4,164.6,221.2,142.7,221.2z M85.6,202.3L85.6,202.3c-1.5,1.7-2.1,4-1.9,6.3c0.3,2.4,1.6,4.6,3.6,6.1
		c4.4,3.4,11.4,4,17.6,4.3c33.8,1.4,67.6,0.9,101.3-1.6c6.8-0.5,13.2-1.2,18.1-4c2.6-1.4,4.5-3.9,5.2-6.8c0.3-1.9-0.2-3.9-1.5-5.3
		c-1.7-2-4.7-3.5-8.4-4.3c-3.4-0.6-6.9-0.8-10.4-0.7l-31.8,0.1c-24.4,0-48.9,0-73.5,0.1l0,0C95,196.3,88.8,198.3,85.6,202.3z"></path><path class="st0" d="M88.7,232.5c-3.2,3.9-2.7,9.8,1.3,13c0.2,0.1,0.3,0.3,0.5,0.4c4.6,3.5,11.6,3.9,18,3.9
		c33.7,0.6,67.4-0.8,100.9-4.2c6.5-0.7,13.2-1.6,18.3-4.6s7.6-9.1,3.9-13.4c-2-2.3-5.4-3.7-8.8-4.3c-3.5-0.5-7-0.6-10.5-0.4
		c-34.7,0.9-69.6,1.9-104.8,2.8C100.1,225.9,92.6,227.5,88.7,232.5z"></path><path class="st1" d="M122.5,250.7c-4.7,0-9.4,0-14.1-0.1c-6.4-0.1-13.7-0.5-18.4-4.1c-2.2-1.6-3.7-4.1-4.1-6.9
		c-0.3-2.7,0.5-5.5,2.2-7.6c3.5-4.4,10-6.8,19.3-7c24.6-0.6,49-1.3,73.2-2l31.5-0.9c3.6-0.2,7.1-0.1,10.6,0.4c4,0.7,7.3,2.3,9.3,4.5
		c1.6,1.7,2.2,4.1,1.9,6.4c-0.7,3.4-2.9,6.4-5.9,8.1c-5.1,3.1-11.7,4-18.6,4.7C180.5,249.3,151.5,250.7,122.5,250.7z M89.3,233
		c-1.5,1.8-2.2,4.1-1.9,6.4c0.3,2.4,1.6,4.5,3.5,5.9c4.4,3.3,11.3,3.7,17.5,3.8c33.7,0.6,67.3-0.8,100.8-4.2
		c6.7-0.7,13.2-1.6,18-4.5c2.7-1.5,4.6-4.1,5.2-7.1c0.3-1.9-0.2-3.8-1.5-5.1c-1.7-2-4.7-3.4-8.4-4c-3.4-0.5-6.9-0.6-10.3-0.4
		l-31.6,0.9c-24.3,0.7-48.7,1.3-73.2,2C98.6,226.8,92.5,229,89.3,233L89.3,233z M88.7,232.5L88.7,232.5z"></path><path class="st2" d="M100.3,202c-0.4,1.4,0.1,2.9,1.3,3.7c1.2,0.9,2.9,1,4.2,0.3c1.2-0.7,1.7-2.2,1.3-3.5c-0.6-1.4-1.9-2.4-3.4-2.7
		C102.3,199.7,100.9,200.6,100.3,202z"></path><path class="st2" d="M100.4,209.6c1.3-1.3,3-2,4.8-1.9c1.7,0.2,3.2,0.9,4.3,2.1c0.9,0.9,1.6,1.9,2.1,3.1c0.1,0.3,0,0.7-0.3,0.8
		c-0.1,0-0.2,0.1-0.3,0.1l-7.2,0.2c-1.3,0-6.4,0.9-5.6-1.4C98.8,211.5,99.5,210.4,100.4,209.6z"></path><path class="st1" d="M132.9,235.2c-0.6,2,0.2,4.1,1.9,5.3c1.8,1.2,4.1,1.3,5.9,0.2c1.7-1.1,2.4-3.2,1.8-5.1
		c-0.9-1.9-2.6-3.3-4.7-3.8C135.7,231.7,133.5,233.6,132.9,235.2z"></path><path class="st1" d="M148.8,234.5c-0.6,2,0.1,4.1,1.8,5.2c1.7,1.2,4,1.3,5.8,0.2c1.6-1.1,2.3-3.1,1.7-5c-0.8-1.9-2.6-3.3-4.6-3.7
		C151.4,231,149.3,232.9,148.8,234.5z"></path><path class="st1" d="M194.1,232.3c-0.7,2.5,0.7,5.1,3.2,5.8c1.3,0.4,2.7,0.2,3.8-0.5c1.5-1.1,2.2-3.1,1.6-4.8
		c-0.7-1.8-2.3-3.1-4.2-3.6C196.6,228.9,194.7,230.8,194.1,232.3z"></path><path class="st1" d="M208.4,231.6c-0.5,1.8,0.1,3.8,1.6,5c1.5,1.1,3.6,1.2,5.2,0.2c1.5-1.1,2.1-3,1.5-4.8c-0.7-1.8-2.3-3.1-4.1-3.5
		C210.8,228.3,208.9,230.1,208.4,231.6z"></path><path class="st1" d="M164.8,233.7c-0.6,1.9,0.1,4,1.8,5.2c1.6,1.2,3.8,1.3,5.6,0.2c1.6-1.1,2.3-3.1,1.7-5c-0.8-1.9-2.5-3.2-4.5-3.6
		C167.4,230.2,165.3,232.1,164.8,233.7z"></path><path class="st1" d="M179.8,233c-0.6,1.9,0.1,3.9,1.7,5.1c1.6,1.2,3.7,1.3,5.4,0.2c1.6-1.1,2.2-3.1,1.6-4.9
		c-0.8-1.8-2.4-3.2-4.4-3.6C182.3,229.6,180.3,231.4,179.8,233z"></path><path class="st1" d="M125.9,235.4c-1.2-0.8-2.7-0.7-3.8,0.1c0.7-1,0.5-2.4-0.5-3.1c-1-0.7-2.4-0.7-3.4,0.1c-0.9,0.8-1,2.2-0.3,3.2
		c-1.8,0.2-3.7,0.3-5.5,0.4c-3,0.1-6.1,0-9.2,0.1c-2.7,0.1-5.4,0.2-8.2,0.3c-0.3,0-0.5,0.2-0.5,0.5v0.8c0,0.4,0.3,0.7,0.7,0.7h1.3
		c-0.1,0.5-0.1,0.9,0,1.4c0,0.3,0.1,0.7,0,1c0,0.1,0,0.3,0.1,0.4c0.1,0.1,0.2,0.1,0.4,0.1c0.3,0,0.6,0,0.9,0c0.2,0,0.5-0.1,0.7-0.2
		c0.2-0.2,0.3-0.5,0.2-0.8c0-0.4-0.1-0.8-0.2-1.2v-0.8l2.4-0.3l-0.1,2.2c0,0.4,0.3,0.7,0.7,0.7c0,0,0,0,0,0h1.3
		c0.4,0,0.7-0.3,0.8-0.7c0,0,0-0.1,0-0.1l-0.2-2.6c4.7-0.2,9.4-0.2,14.1-0.1c-0.5,1-0.3,2.3,0.6,3.1c0.9,0.8,2.2,1,3.3,0.5
		c1-0.5,1.6-1.7,1.3-2.8c0.9,1.1,2.4,1.2,3.4,0.4c0,0,0.1,0,0.1-0.1C127.2,237.6,127,236.2,125.9,235.4
		C125.9,235.5,125.9,235.5,125.9,235.4z M118.9,233.8c0.6-1.2,2.4-0.2,1.9,0.9c-0.3,0.5-0.9,0.7-1.4,0.4
		C118.9,234.9,118.7,234.3,118.9,233.8C118.9,233.8,118.9,233.8,118.9,233.8z M120.7,239.9c-0.4,0.4-1,0.5-1.4,0.2
		c-0.4-0.3-0.5-0.8-0.2-1.2c0,0,0.1-0.1,0.1-0.1C120,237.9,121.5,238.8,120.7,239.9z M124.7,238c-0.6,0.1-1.1-0.2-1.4-0.7
		c-0.2-0.3-0.2-0.7,0-1c0.6-0.5,1.5-0.4,2,0.2c0.1,0.1,0.2,0.2,0.2,0.4C125.7,237.4,125.3,237.9,124.7,238
		C124.7,238,124.7,238,124.7,238L124.7,238z"></path><path class="st1" d="M122,206.2c-0.6,2,0.2,4.2,1.9,5.4c1.8,1.3,4.1,1.4,6,0.4c1.7-1.1,2.5-3.2,1.8-5.1c-0.9-2-2.7-3.4-4.8-3.9
		C124.8,202.6,122.6,204.6,122,206.2z"></path><path class="st1" d="M138.1,205.8c-0.6,2,0.2,4.1,1.8,5.3c1.7,1.2,4,1.4,5.9,0.4c1.7-1.1,2.4-3.1,1.7-5c-0.9-2-2.6-3.4-4.7-3.9
		C140.8,202.3,138.7,204.2,138.1,205.8z"></path><path class="st1" d="M122,206.2c-0.6,2,0.2,4.2,1.9,5.4c1.8,1.3,4.1,1.4,6,0.4c1.7-1.1,2.5-3.2,1.8-5.1c-0.9-2-2.7-3.4-4.8-3.9
		C124.8,202.6,122.6,204.6,122,206.2z"></path><path class="st1" d="M138.1,205.8c-0.6,2,0.2,4.1,1.8,5.3c1.7,1.2,4,1.4,5.9,0.4c1.7-1.1,2.4-3.1,1.7-5c-0.9-2-2.6-3.4-4.7-3.9
		C140.8,202.3,138.7,204.2,138.1,205.8z"></path><path class="st1" d="M154.4,205.5c-0.6,1.9,0.2,4,1.8,5.2c1.7,1.2,3.9,1.4,5.7,0.4c1.7-1.1,2.4-3.1,1.7-5c-0.8-1.9-2.5-3.3-4.6-3.8
		C157.1,202,155,203.9,154.4,205.5z"></path><g id="sync"><path class="st0" d="M136.5,277.5c-10.3,13.3-10.1,32.6,0.8,44.4c10.4,11.2,28.5,13.4,42.2,6.1c12.4-6.6,20.6-20.6,20.5-33.6
			c-0.2-12.2-8.9-27.4-21.5-30.9C164.9,259.6,146.2,265,136.5,277.5z"></path><path class="st1" d="M162.4,332.9c-9.7,0-19.2-3.6-25.6-10.5c-11-11.9-11.3-31.8-0.8-45.3l0,0c9.4-12.1,28.2-18.4,42.8-14.3
			c13,3.6,21.9,19.3,22,31.6c0.2,13.6-8.4,27.7-20.9,34.3C174.5,331.4,168.5,332.9,162.4,332.9z M136.5,277.5l0.6,0.5
			c-10.1,13-9.7,32,0.8,43.4c9.8,10.6,27.6,13.2,41.3,6c12-6.3,20.2-19.9,20.1-32.9c-0.1-11.8-8.6-26.7-20.9-30.2
			c-14.1-3.9-32.2,2.1-41.2,13.8L136.5,277.5z"></path><path class="st2" d="M145.9,289.3c-1.4,0-2.5-1.1-2.5-2.5c0-0.6,0.2-1.2,0.6-1.6c6.7-7.8,15.3-12.6,23.8-13
			c9-0.5,17.6,4.3,21.3,12c0.6,1.2,0.1,2.7-1.1,3.4c-1.2,0.6-2.7,0.1-3.4-1.1l0,0c-2.9-5.9-9.6-9.6-16.6-9.2s-14.4,4.5-20.2,11.3
			C147.3,289,146.6,289.3,145.9,289.3z"></path><path class="st2" d="M185.8,288.7c-0.7,0-1.5-0.1-2.1-0.4l-8.1-2.4c-1.3-0.4-2.1-1.8-1.7-3.1c0.4-1.3,1.8-2.1,3.1-1.7l0,0l8.1,2.4
			l0.3,0.1c0-0.1,0-0.2,0-0.4c0.2-1.8,0.2-3.5,0.2-5.3c0-1.4,1.1-2.5,2.4-2.6s2.5,1.1,2.6,2.4c0,2,0,4-0.2,5.9c0,1.5-0.7,3-1.8,4
			C187.8,288.4,186.8,288.7,185.8,288.7z"></path><path class="st2" d="M166.5,316.3c-8.3,0-16.1-4.4-19.9-11.5c-0.6-1.2-0.2-2.7,1-3.4c1.2-0.6,2.7-0.2,3.4,1
			c3.4,6.4,11.2,9.9,18.9,8.5c6.6-1.2,13-5.7,17.6-12.4c0.8-1.1,2.4-1.3,3.5-0.5c1,0.8,1.3,2.2,0.6,3.3
			c-5.3,7.8-12.9,13.1-20.8,14.5C169.3,316.1,167.9,316.3,166.5,316.3z"></path><path class="st2" d="M146.8,314.9L146.8,314.9c-1.4,0-2.5-1.1-2.5-2.5c0,0,0,0,0,0c0-2.4,0.2-4.7,0.6-7.1c0.1-1.7,0.9-3.3,2.1-4.4
			c2-1.5,4.4-1,5.4-0.8l9.5,2.1c1.4,0.3,2.2,1.6,1.9,3s-1.6,2.2-3,1.9l-9.5-2.1c-0.4-0.1-0.9-0.2-1.3-0.1c-0.1,0.4-0.2,0.8-0.2,1.2
			c-0.3,2.1-0.5,4.2-0.5,6.4C149.3,313.8,148.2,314.9,146.8,314.9C146.8,314.9,146.8,314.9,146.8,314.9z"></path></g></g><g id="character-2"><path class="st0" d="M389.5,255.5c-1.4,2.8-1.7,6.1-1.9,9.2c-0.2,1.6-0.2,3.2,0.2,4.7c0.4,1.6,1.6,2.8,3.2,3.2
		c2.5,0.4,4.4-2,5.5-4.2c1.6-3.3,5-11.4,3-15.1C397,248.6,391.2,251.9,389.5,255.5z"></path><path class="st1" d="M391.5,273.4c-0.2,0-0.4,0-0.7-0.1c-1.8-0.4-3.3-1.9-3.8-3.7c-0.4-1.6-0.5-3.3-0.2-5c0.2-3,0.5-6.5,2-9.4
		c1.2-2.4,4.2-4.9,7.1-4.9c1.8,0,3.5,1,4.2,2.7c2.3,4.3-1.7,13.1-3,15.8C395.7,271.6,393.6,273.4,391.5,273.4z M396,251.7L396,251.7
		c-2.3,0-4.9,2.1-5.8,4.1l0,0c-1.3,2.7-1.6,5.9-1.8,8.9c-0.2,1.5-0.2,3,0.2,4.4c0.3,1.3,1.3,2.3,2.6,2.7c2.4,0.4,4.2-2.8,4.7-3.8
		c2.4-4.8,4.6-11.5,3-14.4C398.3,252.5,397.2,251.7,396,251.7L396,251.7z M389.5,255.5L389.5,255.5z"></path><path class="st1" d="M384.6,437.5c-1,0.4-2.1,1-2.2,2c0,1.4,1.8,1.9,3.2,2c7.6,0.2,15.1,0.1,22.7-0.5c1.8-0.1,3.9-0.4,4.9-1.9
		c0.9-1.5,0.8-3.5-0.2-4.9C407.6,426.1,391.7,434.9,384.6,437.5z"></path><path class="st1" d="M415.2,449c-1.6,1.4-3.3,3.6-2.3,5.5c0.6,1.2,2.1,1.7,3.5,2.1l7.5,2c3.7,1,8,1.9,11.2-0.3
		c3.4-2.3,3.9-7.1,4.1-11.2c0.3-5.3-0.2-14.2-7.3-10.7C426,439.3,420.1,444.5,415.2,449z"></path><path class="st2" d="M408.5,432.5l2.3,0.2c1.3,0.1,2.5-0.8,2.7-2.2c0-0.3,0-0.5-0.1-0.8c-8.2-33.2-10.3-67.8-8-101.9
		c0.1-4,0.8-8,2.1-11.8c0.8-2.3,3.3-3.5,5.7-2.7c1.6,0.6,2.7,1.9,2.9,3.6c0.7,4.7,0.3,9.6,0,14.4c-2.2,32-0.1,64.2,6.1,95.6
		c0.5,2.8,1.2,5.6,2.8,7.9c2.2,3.2,6.1,4.9,10,5.5c0.7,0.1,1.3,0.1,2,0.2c4.5,0.2,8.2-3.3,8.4-7.8c0-0.5,0-1-0.1-1.5
		c-2.8-18.4-5.5-36.8-7.4-55.2c-3.4-32.5-4.4-65.2-3-97.9c-4.8-3.4-10.7-4.5-16.4-3.3c-10.6,2.5-12.9,10.1-15.3,19.4
		c-2.9,10.9-5.1,22-6.5,33.2c-2.9,22.4-2.7,45.2,0.4,67.6c1.6,11.5,4,22.9,7.2,34.1C404.7,430.9,406.4,432.3,408.5,432.5z"></path><path class="st0" d="M419,132.8c-1.2,10.8-0.6,22,3.1,32.2c1.5,3.9,4.1,8.2,8.3,8.5c3.6,0.3,6.6-2.5,9.1-5.1
		c5.8-6.1,11.3-12.6,15.4-20s6.7-15.7,6.3-24.1s-4.1-16.8-10.8-22c-5.5-4.2-19.1-8.2-24.3-1.2c-2.6,3.5-3.1,10.5-4.1,14.7
		C420.7,121.3,419.7,127,419,132.8z"></path><path class="st1" d="M430.9,174.2h-0.6c-3.7-0.3-6.9-3.5-8.9-9c-3.4-9.3-4.5-20.2-3.2-32.5c0.7-5.8,1.7-11.6,3.1-17.2
		c0.3-1.1,0.5-2.4,0.7-3.7c0.7-4,1.5-8.5,3.5-11.2c1.7-2.3,4.4-3.7,7.2-4c6.1-0.9,14,1.9,18.1,5.1c6.5,5,10.6,13.4,11,22.6
		c0.4,7.8-1.8,16.3-6.4,24.5c-4.3,7.8-10.3,14.6-15.5,20.1C437.4,171.6,434.5,174.2,430.9,174.2z M435.1,97.9c-0.7,0-1.5,0-2.2,0.2
		c-2.4,0.2-4.7,1.4-6.2,3.4c-1.8,2.4-2.5,6.8-3.2,10.6c-0.2,1.4-0.5,2.7-0.7,3.8c-1.3,5.6-2.3,11.3-3,17l0,0
		c-1.3,12-0.3,22.7,3.1,31.8c1.1,2.9,3.5,7.7,7.6,8.1c3.2,0.2,6-2.2,8.5-4.9c5.1-5.5,11-12.1,15.3-19.8c4.4-8,6.5-16.2,6.2-23.7
		c-0.4-8.7-4.3-16.7-10.5-21.4C445.6,99.7,440.4,98,435.1,97.9z M419,132.8L419,132.8z"></path><path class="st1" d="M460.3,102.9c2.5,3.1,5,7.4,3,10.9c-1.2,2-3.5,3.1-5.7,3.8c-26.6,8.8-55.6-3.8-67.2-29.4
		c-2.1-4.7-5.3-13.9-0.1-17.8c4.2-3.2,11.8-0.9,16.3,0c13.5,2.9,26.2,8.6,37.3,16.8C450,91.8,455.5,97.1,460.3,102.9z"></path><path class="st1" d="M423.8,133.4c-0.3-0.7,0.1-1.5,0.8-1.8c0.2-0.1,0.3-0.1,0.5-0.1c0.7,0.1,1.3,0.7,1.4,1.4
		c0.1,0.7,0.1,1.4-0.1,2.1c-0.1,0.6-0.2,1.1-0.5,1.6c-0.3,0.5-0.9,0.7-1.5,0.5c-0.5-0.4-0.8-1-0.6-1.6c0.1-0.6,0-1.2-0.2-1.8"></path><path class="st1" d="M426.9,156.4c-1.1,0.2-2.3,0.4-2.9,1.3c-0.4,0.7-0.5,1.5-0.1,2.2c0.4,0.7,0.9,1.3,1.6,1.6
		c2.9,1.7,6.7,0.8,8.4-2.1c0.9-1.5,1.1-3.2,0.6-4.8c-0.6-2.3-2-1.4-3.2-0.4C430.1,155.3,428.6,156,426.9,156.4z"></path><path class="st1" d="M432.3,177.6c-4.7-0.3-7.7,4.3-10,8.6c-13.2,25.1-23,53-30.5,82.1c-1.2,4.7-2.2,10.4,0.7,15.1
		c3,4.9,8.6,5.9,13.3,6.4l24.7,2.4c4.4,0.4,8.8,0.8,12.9,0.1s8-2.9,10.2-6.7c3.2-5.6,2.4-13.8,1.4-21.3l-6.8-54
		C446.8,200.1,445.8,178.3,432.3,177.6z"></path><path class="st1" d="M480.3,102.1c2.9,2.8,4.2,7.3,4.1,11.7c-0.2,4.3-1.4,8.4-3.4,12.2c-4.4,9.2-11.9,16.5-21.2,20.7
		c-3.9,1.7-8.5,2.6-12.2,0.2c-4.7-3.1-5.7-10.5-5-16.6c1-9.2,4.5-21.3,12.3-25.7C461.8,100.7,473.6,95.6,480.3,102.1z"></path><path class="st0" d="M439.1,139.6c0-3.4,2.8-6.2,6.2-6.2c3.4,0,6.2,2.8,6.2,6.2c0,3.4-2.8,6.2-6.2,6.2c-2.7,0-5.2-1.8-5.9-4.4"></path><path class="st1" d="M445.4,146.6c-3.1,0-5.8-2-6.8-4.9c-0.1-0.4,0.1-0.8,0.5-0.9s0.8,0.1,0.9,0.5c0.9,2.9,3.9,4.6,6.8,3.7
		c2.9-0.9,4.6-3.9,3.7-6.8s-3.9-4.6-6.8-3.7c-2.3,0.7-3.9,2.8-3.9,5.3c0,0.4-0.3,0.8-0.8,0.8s-0.8-0.3-0.8-0.8c0-3.9,3.1-7,6.9-7.1
		c3.9,0,7,3.1,7.1,6.9c0,3.3-2.3,6.2-5.5,6.9C446.3,146.5,445.9,146.6,445.4,146.6z"></path><path class="st0" d="M429.9,246.1c-2.1-2-4.9-3.8-7.7-3c-2.2,0.8-3.7,2.9-3.8,5.3c0,2.3,1,4.6,2.8,6.1c-7.9-0.4-15.6,2.4-21.3,7.8
		c-1.6,1.6-3.2,3.5-3.2,5.8c0,3.4,3.5,6,6.9,6.2s6.6-1.4,9.7-2.9c-2.7,4.1,0.3,10.1,4.9,11.9s9.8,0.4,14.2-1.8
		C448.5,273.6,440.1,255.7,429.9,246.1z"></path><path class="st1" d="M422.6,285c-1.7,0-3.3-0.3-4.9-0.9c-2.9-1.2-5.1-3.6-6-6.5c-0.5-1.5-0.5-3-0.1-4.5c-2.5,1.3-5.4,2-8.2,2
		c-3.7-0.2-7.7-3-7.6-7c0-2.1,1.2-4.1,3.5-6.3c5.5-5.1,12.7-7.9,20.1-8c-1.2-1.5-1.8-3.4-1.8-5.4c0-2.7,1.8-5.1,4.3-6
		c2.5-0.7,5.4,0.4,8.4,3.1c6.2,5.8,13,15.9,11.6,25c-0.8,5.1-3.9,9-9.4,11.7C429.5,284,426.1,284.9,422.6,285z M413.2,270.7
		c0.2,0,0.4,0.1,0.6,0.3c0.2,0.3,0.3,0.6,0.1,0.9c-1,1.6-1.2,3.5-0.6,5.2c0.8,2.5,2.7,4.5,5.1,5.6c4.7,1.8,10,0.1,13.6-1.7
		c5-2.5,7.9-6,8.5-10.6c1.2-8-4.7-17.7-11.1-23.7l0,0c-1.8-1.7-4.5-3.6-7-2.8c-1.9,0.7-3.2,2.5-3.2,4.6c0,2.1,0.9,4.2,2.5,5.6
		c0.3,0.3,0.3,0.8,0,1.1c-0.2,0.2-0.4,0.2-0.6,0.2c-7.7-0.4-15.2,2.3-20.8,7.6c-2,1.9-3,3.6-3,5.2c0,3,3.2,5.3,6.2,5.4
		c3.3,0.2,6.5-1.4,9.4-2.8C412.9,270.7,413.1,270.7,413.2,270.7L413.2,270.7z"></path><path class="st0" d="M480.2,221.9c5.8,7.4,11.3,16.7,8.3,25.6c-2,5.8-7.1,9.9-12.3,13c-9.5,5.6-20,9.2-30.9,10.5
		c-5.1,0.6-11.5-0.1-13.2-4.9c-1.2-3.6,1.1-7.4,4-9.9s6.4-4,9.1-6.7c5.9-6.1,5.6-16.1,2.3-23.9s-8.9-14.4-12.9-21.9
		c-2.1-4-7.1-14-2.1-17.5c4.2-3,10.9,1.2,14.3,3.6C459.4,198.8,470.7,209.6,480.2,221.9z"></path><path class="st1" d="M442.3,272c-3.8,0-9.3-0.9-10.9-5.6c-1.4-4.1,1.4-8.3,4.2-10.7c1.3-1,2.6-2,4-2.8c1.8-1.1,3.5-2.4,5-3.9
		c6.1-6.3,5-16.4,2.1-23.1c-2-4.4-4.5-8.7-7.2-12.7c-1.9-2.9-3.9-6-5.6-9.2c-5-9.6-5.7-15.8-1.9-18.5c3.4-2.4,8.5-1.2,15.2,3.6
		c12.7,9.1,24.1,20,33.7,32.4c8.1,10.3,10.9,18.9,8.4,26.3c-2.2,6.6-8.3,10.8-12.7,13.4c-9.5,5.7-20.2,9.3-31.2,10.6
		C444.3,271.9,443.3,272,442.3,272z M435.9,185.8c-1.1,0-2.2,0.3-3.1,0.9c-3.1,2.2-2.3,7.8,2.4,16.6c1.6,3.1,3.6,6.1,5.5,9.1
		c2.8,4.1,5.3,8.4,7.3,12.9c3,7.2,4.2,17.9-2.4,24.7c-1.6,1.5-3.4,2.9-5.3,4.1c-1.3,0.8-2.6,1.7-3.8,2.7c-2.5,2-4.9,5.6-3.7,9
		c1.5,4.2,7.4,5,12.4,4.4c10.8-1.3,21.2-4.9,30.6-10.5c6.6-4,10.5-8,12-12.6c2.3-6.9-0.4-15-8.1-24.9c-9.5-12.3-20.8-23.1-33.4-32.1
		C442,187.3,438.5,185.8,435.9,185.8L435.9,185.8z"></path></g><g id="character-2-2"><path class="st1" d="M283.3,468.7c-1.3,0.9-2.4,2.1-3.2,3.4c-0.9,1.4-0.9,3.1-0.1,4.5c1,1.6,3.1,2,4.9,2.2
		c6.8,0.9,13.7,1.1,20.6,0.6c2.5-0.2,5.2-0.5,6.9-2.3c2.1-2.2,1.9-5.6,1.4-8.6c-0.7-3.7-1.7-7.4-3.2-10.9c-3.1-7.5-6.8-2.7-11.6,0.1
		C293.6,461.1,288.3,464.7,283.3,468.7z"></path><path class="st1" d="M329.8,455.8c-0.7,1-1.4,2.3-0.8,3.3c0.5,0.5,1.1,0.9,1.9,1c7.4,1.8,15.1,2.3,22.7,1.3c2.4-0.3,5-0.9,6.2-3
		s0.5-4.6-0.3-6.8c-1.3-3.2-3.1-6.4-6-8.4C345.4,437.6,334.3,449.8,329.8,455.8z"></path><path class="st0" d="M351.1,237.8c6-0.7,12.5-1.2,18,1.4c6.3,3,10.3,9.6,11.6,16.5s0.3,14-1.1,20.8s-3.3,13.7-3.7,20.6
		c9.5,8.2,12.7,21.6,7.9,33.2c-1.4,3.2-4.5,6.5-7.7,5.2c-1.6-0.6-2.6-2.3-3.4-3.8c-8.9-17.5-11.4-37.5-7.1-56.7
		c1.1-4.9,2.7-9.8,2.8-14.8s-1.5-10.4-5.6-13.4c-4.5-3.2-10.5-2.7-15.9-2.1l-19.4,2.2c-2,0.2-10.1,1.2-11.1-1.3
		c-0.9-2.2,3.8-2.9,5.4-3.3C331.3,240,341.3,238.9,351.1,237.8z"></path><path class="st1" d="M377.5,336.6c-0.6,0-1.2-0.1-1.7-0.3c-1.9-0.8-2.9-2.5-3.7-4.2c-8.9-17.7-11.4-37.9-7.1-57.2
		c0.3-1.1,0.5-2.3,0.8-3.5c1.1-3.6,1.7-7.4,1.9-11.2c0.1-5.5-1.9-10.3-5.3-12.8c-4.1-3-9.6-2.6-15.4-2l-19.6,2.2
		c-7.2,0.8-10.9,0.2-11.8-1.8c-0.2-0.5-0.2-1.2,0-1.7c0.7-1.4,2.9-1.9,5.1-2.4l0.7-0.2c9-2.3,18.5-3.4,27.6-4.4l1.8-0.2l0.1,0.8
		L351,237c6.2-0.7,12.7-1.2,18.4,1.4c6.1,2.8,10.6,9.2,12.1,17.1c1.4,7.2,0.2,14.7-1.2,21.1c-0.3,1.5-0.7,3-1,4.5
		c-1.3,5.1-2.2,10.4-2.6,15.6c9.4,8,12.8,22.5,7.9,33.8C383.1,333.9,380.4,336.6,377.5,336.6z M353.2,243.6c3.7,0,7.2,0.6,10,2.7
		c3.9,2.8,6.1,8,6,14c-0.2,3.9-0.9,7.8-2,11.5c-0.3,1.1-0.6,2.3-0.8,3.4c-4.2,19-1.7,38.8,7,56.2c0.7,1.4,1.6,2.9,3,3.5
		c2.9,1.2,5.7-2.3,6.7-4.8c4.7-10.9,1.4-24.7-7.7-32.3c-0.2-0.1-0.3-0.4-0.3-0.6c0.5-5.5,1.4-10.9,2.7-16.3c0.3-1.5,0.7-3,1-4.5
		c1.3-6.2,2.5-13.6,1.1-20.5c-1.4-7.4-5.6-13.4-11.2-16c-5.3-2.5-11.6-2-17.6-1.3l-1.8,0.2c-9.1,1.1-18.5,2.1-27.5,4.4l-0.7,0.2
		c-1.2,0.3-3.7,0.8-4.1,1.7c-0.1,0.1-0.1,0.3,0,0.4c0.2,0.6,1.7,1.8,10.2,0.9l19.6-2.2C348.9,243.7,351,243.6,353.2,243.6
		L353.2,243.6z"></path><path class="st1" d="M294.7,201.6c-0.9,0-1.9-0.3-2.6-0.9c-0.7-0.8-1.1-1.9-1-3.1l0-4.7c-0.1-0.7,0.1-1.4,0.5-2
		c0.7-0.7,1.8-1.1,2.8-1c3.1,0.1,4.9,1.4,5.4,3.8c0.3,1.3,0.3,2.6,0.1,3.9C299.2,200,297.1,201.7,294.7,201.6L294.7,201.6z
		 M294.3,190.9c-0.7,0-1.3,0.2-1.8,0.7c-0.3,0.4-0.4,0.9-0.3,1.4l0,4.7c-0.1,0.8,0.1,1.7,0.6,2.3c1.1,0.8,2.6,0.8,3.8,0.2
		c1.2-0.6,2-1.6,2.3-2.9c0.2-1.2,0.2-2.4-0.1-3.5c-0.4-1.9-1.8-2.9-4.4-3L294.3,190.9L294.3,190.9z"></path><path class="st0" d="M294,229c0.3,4.8,2,10.7,8,11.4s10.8-4.3,13.9-8.6c7.2-10,13.8-20.3,19.9-31c3.4-5.9,6.6-12.2,6-18.4
		c-0.9-9.2-10.1-16-19.1-21.5c-4.9-3-13.1-6.1-18.7-1.1c-4.8,4.2-5,13.6-6.1,18.5C294.3,195,293,212,294,229z"></path><path class="st1" d="M303.2,241.3c-0.4,0-0.8,0-1.2-0.1c-5.2-0.6-8.3-4.9-8.7-12.1l0,0c-1-17.1,0.3-34.2,3.9-50.9
		c0.2-1.1,0.4-2.4,0.6-3.7c0.8-5.2,1.8-11.8,5.7-15.2c6.5-5.8,15.9-1.2,19.6,1.1c9.1,5.5,18.5,12.4,19.5,22.1
		c0.6,6.4-2.6,12.8-6.1,18.8c-6.1,10.7-12.8,21.1-20,31.1C312.4,238.2,307.7,241.3,303.2,241.3z M311.2,158
		c-2.5-0.1-4.9,0.8-6.7,2.4c-3.5,3.1-4.5,9.3-5.2,14.3c-0.2,1.4-0.4,2.7-0.6,3.8c-3.6,16.6-4.9,33.6-3.9,50.5l0,0
		c0.3,4.5,1.8,10.1,7.4,10.7s10.2-4.2,13.2-8.3c7.1-10,13.8-20.3,19.9-31c3.3-5.8,6.5-12,5.9-17.9c-0.9-9-10-15.6-18.8-20.9
		C320.1,160.2,315.7,158,311.2,158L311.2,158z"></path><path class="st1" d="M295.9,138.2c-6,4.6-7.7,11.5-4.1,16.4c-5.1,2.7-7.9,7.5-6.9,11.5s5.8,7.2,11.7,7.8c-3.7,3.6-4.1,8.4-1,11.7
		s9.6,4.6,15.4,3.2c-3.4,2.6-4.8,6.4-3.5,9.4s5.4,5.3,10,5.5c-3.9,2-6.1,5.5-5.4,8.5s4.2,5.4,8.6,5.9c-5.4,2.7-7,8.4-3.6,11.9
		s10.6,4.5,16.6,2.7s10.8-5.9,12.4-10.3c4.3,2.2,10.9,2.1,15.9-0.2s8.1-6.6,7.4-10.5c6.9-2.9,11.4-8.7,11-13.9s-5.6-9.8-12.8-11.1
		c8.1-6.8,8.5-17.2,0.9-23c-1.8-1.4-4.1-2.6-5-4.4c-1-2.1-0.1-4.5,0.2-6.8c0.8-7.4-6.9-14.1-17.2-14.9c-2.9-0.2-7.3-4-11-4.7
		c-4.3-0.7-8.7-1-13.1-1C313.7,132,302.4,133.2,295.9,138.2z"></path><path class="st1" d="M305,219.2c1.2,1.6,1.2,3.8-0.1,5.4c-1,1.3-2.5,2.2-4.2,2.3c-2.5,0.2-4.4-1.3-2.8-3.1
		C298.3,223.3,305.1,219.3,305,219.2z"></path><path class="st0" d="M306.8,198c2.5-1.2,5.3-2.5,8.1-2.2c1.6,0.2,3.1,0.9,4.2,2.1c2,1.8,2.6,4.7,1.6,7.1c-1.5,2.8-4.3,4.6-7.4,4.7
		c-1.6,0.1-3.5-0.4-3.9-1.6"></path><path class="st1" d="M312.8,210.5c-1.8,0-3.7-0.7-4.2-2.2c-0.1-0.4,0.1-0.8,0.5-0.9c0.4-0.1,0.8,0.1,0.9,0.5l0,0
		c0.2,0.7,1.6,1.2,3.1,1.1c2.9-0.1,5.4-1.8,6.8-4.3c0.9-2.2,0.4-4.7-1.4-6.3c-1-1-2.4-1.7-3.8-1.9c-2.5-0.3-5,0.8-7.6,2.1
		c-0.4,0.2-0.8,0-1-0.3c-0.2-0.4,0-0.8,0.3-1c2.8-1.4,5.6-2.6,8.5-2.2c1.8,0.2,3.4,1,4.6,2.3c2.2,2,2.9,5.2,1.8,8
		c-1.6,3-4.6,5-8,5.2L312.8,210.5z"></path><path class="st1" d="M314.4,196.6L314.4,196.6c-7.8-1.2-15.4-2.8-23-4.9c-0.3-0.1-0.4-0.4-0.4-0.6c0.1-0.3,0.4-0.4,0.6-0.4
		c7.5,2.1,15.1,3.7,22.8,4.9c0.3,0,0.5,0.3,0.5,0.5S314.7,196.6,314.4,196.6L314.4,196.6z"></path><path class="st2" d="M308.7,245.8c-1.1,2.3-0.9,4.9-0.7,7.4c2.6,27.6,5,53.8,9.3,78.7c0.6,3.4,1.5,7.1,4.6,9.3s7.6,1.8,11.4,1.2
		c12.6-2.1,24.8-6.4,35.9-12.8c3.5-2,7.2-4.6,8.2-8.2c0.8-2.9-0.3-6-1.4-8.8c-9.9-25.2-25.8-51.7-51.4-67.9
		C320.3,241.8,311.7,239.8,308.7,245.8z"></path><path class="st0" d="M298,457c5,0.8,10.1,0.7,15-0.2c-2.1-26.9,1-54,9.1-79.8c3.3-10.5,7.8-21.2,16.6-27.8c2.1-1.6,5-2.9,7.2-1.4
		c2.6,1.8,1.8,5.7,0.8,8.7c-9.5,28.9-8.6,60-7.6,90.4l18.4-1.8c-2.1-31.9-2.9-65.1,9.4-94.6c1.9-4.4,4-8.9,4.5-13.7
		s-1.1-10.2-5.2-12.6c-4.4-2.6-10-1.2-14.7,0.6c-8.1,3.2-18.5,7.7-24,14.6c-6.2,7.9-11.5,16.3-15.9,25.3
		c-9,18.2-14.3,37.9-15.6,58.1C295.4,434.3,296,445.7,298,457z"></path><path class="st1" d="M304.8,458.3c-2.3,0-4.6-0.2-6.9-0.6c-0.3-0.1-0.6-0.3-0.6-0.6c-2-11.3-2.6-22.8-1.9-34.2
		c1.3-20.3,6.6-40.2,15.6-58.4c4.4-9,9.8-17.5,16-25.4c5.4-6.8,15.3-11.3,24.3-14.9c4.2-1.7,10.4-3.5,15.4-0.5s6,9,5.6,13.4
		c-0.4,4.2-2.1,8.1-3.7,11.9l-0.9,2c-12.4,29.6-11.4,62.8-9.4,94.3c0,0.4-0.3,0.7-0.7,0.8l-18.4,1.8c-0.2,0-0.4,0-0.6-0.2
		c-0.2-0.1-0.2-0.3-0.2-0.5c-1-28.7-2.1-61.3,7.6-90.7c1.4-4.1,1.2-6.7-0.5-7.8c-2.2-1.5-5.4,0.7-6.4,1.4
		c-8.9,6.7-13.2,17.6-16.3,27.4c-8.1,25.6-11.2,52.6-9.2,79.4c0,0.4-0.2,0.7-0.6,0.8C310.3,458,307.5,458.3,304.8,458.3z
		 M298.6,456.3c4.5,0.7,9.1,0.6,13.5-0.2c-1.9-26.8,1.2-53.7,9.3-79.3c3.2-10,7.7-21.2,16.9-28.1c1.5-1.1,5.2-3.4,8.1-1.4
		c3.5,2.4,1.7,7.8,1.1,9.5c-9.5,28.8-8.6,59.6-7.6,89.4l16.9-1.6c-2-31.4-2.9-64.5,9.5-94.2c0.3-0.7,0.6-1.3,0.9-2
		c1.6-3.7,3.2-7.5,3.6-11.5s-0.6-9.4-4.9-11.9c-3.3-2-7.8-1.8-14,0.7c-8.8,3.5-18.6,7.9-23.7,14.4c-6.1,7.8-11.4,16.2-15.8,25.1
		c-8.9,18.1-14.2,37.7-15.5,57.9C296.2,434.1,296.8,445.3,298.6,456.3L298.6,456.3z"></path><path class="st0" d="M301.5,256.3l-11.3,28.3c-1.5,3.8-3.1,7.7-5.6,11s-6,6-10.1,6.6c-4.1,0.4-8.1-0.9-11.2-3.6
		c-3.1-2.6-5.7-5.8-7.7-9.3c-6.6-10.5-11.4-22-17.6-32.7s-14.4-20.7-25.5-26.2c-2.6-1.3-5.4-2.3-8.3-2s-5.7,2.3-6.2,5.1
		c-0.6,3.4,2,6.4,4.6,8.6c4.6,3.8,9.7,6.7,15.2,8.8c-2.8,2.1-5.3,4.5-7.5,7.3c-2,2.9-3.2,6.5-2.5,9.9c1.1,5.3,6.4,8.7,11.7,10.1
		s10.8,1.5,15.9,3.4c3.9,6.6,6.9,13.8,10.8,20.5s9,12.9,15.9,16.4s15.8,3.8,21.9-0.9c4.6-3.5,7-9.2,9.2-14.5
		c5.9-14.6,12.2-29,17.8-43.7c1-2.5,4.5-9.6,1.9-12C308.2,242.7,302.6,253.4,301.5,256.3z"></path><path class="st1" d="M272.7,321.8c-3.8,0-7.6-0.9-11-2.7c-6.1-3.1-11.4-8.6-16.2-16.7c-2-3.3-3.7-6.8-5.4-10.2s-3.4-6.8-5.3-10
		c-2.8-0.9-5.7-1.5-8.7-1.9c-2.3-0.3-4.6-0.8-6.9-1.3c-6.6-1.8-11.2-5.8-12.2-10.7c-0.6-3.7,0.4-7.5,2.7-10.5
		c1.9-2.5,4.1-4.7,6.6-6.6c-5.1-2.1-9.9-4.9-14.2-8.4c-3.8-3.1-5.5-6.3-4.9-9.3c0.6-3.3,3.9-5.4,6.9-5.7c3.3-0.4,6.5,1,8.7,2
		c9.7,4.8,18.1,13.4,25.9,26.5c2.9,4.9,5.5,10,8,14.9c3,5.9,6.1,12,9.6,17.7c2,3.4,4.5,6.5,7.5,9.1c3,2.5,6.8,3.7,10.7,3.4
		c4.8-0.6,8.1-4.2,9.6-6.3c2.4-3.2,4-7.1,5.5-10.9l11.3-28.3c1-2.5,4.7-9.7,8.8-10.6c1.4-0.3,2.8,0.2,3.8,1.2
		c2.5,2.5,0.2,8.2-1.3,11.6c-0.2,0.5-0.4,0.9-0.5,1.2c-3.8,9.9-7.9,19.9-12,29.5c-2,4.8-4,9.5-5.9,14.2c-2,5-4.5,11.1-9.4,14.9
		C281,320.6,276.9,321.9,272.7,321.8z M205.1,229.2c-0.3,0-0.6,0-0.9,0c-2.4,0.3-5.1,1.9-5.6,4.5c-0.4,2.4,1,5.1,4.4,7.9
		c4.5,3.7,9.6,6.6,15,8.6c0.3,0.1,0.4,0.3,0.5,0.6c0,0.3-0.1,0.5-0.3,0.7c-2.8,2-5.2,4.4-7.4,7.1c-2,2.6-2.9,6-2.4,9.3
		c1.3,6.4,8.9,8.9,11.1,9.5c2.2,0.6,4.5,1,6.7,1.3c3.1,0.4,6.2,1.1,9.2,2.1c0.2,0.1,0.3,0.2,0.4,0.3c2,3.4,3.8,6.9,5.5,10.3
		s3.4,6.8,5.4,10.1c4.6,7.9,9.7,13.2,15.5,16.1c7.2,3.7,15.7,3.4,21.1-0.8c4.6-3.5,6.9-9.2,9-14.2c1.9-4.8,3.9-9.5,5.9-14.2
		c4-9.6,8.1-19.6,11.9-29.5c0.1-0.4,0.3-0.8,0.5-1.3c1.1-2.6,3.4-8.2,1.6-10c-0.6-0.7-1.5-1-2.4-0.8c-3.2,0.7-6.6,6.9-7.7,9.7
		l-11.3,28.3c-1.5,3.8-3.1,7.8-5.7,11.2c-2.9,3.9-6.7,6.3-10.6,6.9c-4.3,0.4-8.5-1-11.8-3.7c-3.1-2.7-5.8-5.9-7.9-9.5
		c-3.6-5.8-6.7-11.9-9.7-17.8c-2.5-4.9-5.1-10-7.9-14.9c-7.6-12.8-15.8-21.3-25.2-25.9C209.9,230,207.6,229.3,205.1,229.2z
		 M301.5,256.3L301.5,256.3z"></path><path class="st1" d="M208,268.6c-0.3,0-0.5-0.2-0.5-0.5c0-0.1,0-0.2,0.1-0.3c3.3-3.9,8.3-6.1,13.4-5.9c0.3,0,0.5,0.2,0.5,0.5
		c0,0,0,0,0,0c0,0.3-0.2,0.5-0.5,0.5c0,0,0,0,0,0c-4.8-0.2-9.5,1.9-12.7,5.6C208.2,268.6,208.1,268.6,208,268.6z"></path></g></svg>