<svg transform="scale(1)" version="1.1" id="D7j4TvVVeI" xmlns="http://www.w3.org/2000/svg" xmlns:xlink="http://www.w3.org/1999/xlink" x="0px" y="0px" viewBox="0 0 500 500" xml:space="preserve" class="pbimage_pbimage__wrapper__image__0LEis false"><title>Sending Emails</title><style type="text/css"> .st0{fill:#59BE4C;} .st1{fill:#FFFFFF;} .st2{fill:#000005;} .st3{fill:none;}
 .st2{fill:#000005;}
 .st1{fill:#FFFFFF;}
 .st0{fill:#59BE4C;}</style><g id="character"><path class="st0" d="M249.1,132.4c-3.5,0-170.3,121.2-170.3,121.2l170.4,107.2l170.4-107.2C419.5,253.6,252.6,132.4,249.1,132.4z" fill="#59BE4C"></path><path class="st0" d="M248,131.1c-0.9,0.1-1.8,0.5-2.5,1c-1.2,0.7-2.4,1.5-3.7,2.3c-4.3,2.9-8.6,5.8-12.8,8.8
		c-13.7,9.5-27.3,19.2-40.8,28.9c-16.3,11.6-32.6,23.3-48.8,35.1c-14,10.1-28.1,20.3-42.1,30.4c-6.8,4.9-13.6,9.7-20.3,14.7
		l-0.3,0.2c-0.4,0.2-0.5,0.8-0.3,1.2c0.1,0.2,0.2,0.3,0.4,0.4l16.9,10.7l40.7,25.6l49.2,31l42.5,26.8c6.9,4.3,13.8,8.7,20.6,13
		l0.3,0.2c1,0.6,2.8,1.2,3.9,0.5l17-10.7l40.7-25.6l49.3-31l42.5-26.7c6.9-4.3,13.9-8.5,20.6-13l0.3-0.2c0.7-0.4,0.5-1.1-0.1-1.5
		l-16.8-12.2c-13.5-9.7-26.9-19.5-40.4-29.2c-16.3-11.7-32.6-23.4-48.9-35.1c-14.1-10.1-28.3-20.2-42.6-30.2
		c-4.7-3.3-9.5-6.6-14.3-9.8c-2.4-1.8-4.9-3.4-7.5-4.8c-0.7-0.4-1.5-0.6-2.3-0.6c-0.7,0-2.2,0.1-2,1.1s2.1,1.4,2.9,1.4
		c-0.6,0-1.1-0.1-1.6-0.4c0.1,0.1,0.3,0.1,0.4,0.2l0.5,0.3l0.3,0.2c0.5,0.3-0.3-0.2,0,0c1.3,0.8,2.6,1.7,3.9,2.6
		c4.4,2.9,8.7,5.9,13.1,9c13.7,9.6,27.3,19.3,41,29c16.2,11.6,32.4,23.2,48.5,34.8c13.9,10,27.8,20,41.7,30.1l13.6,9.9l4.2,3.1
		c0.7,0.6,1.4,1.1,2.2,1.6c0.1,0.1,0.2,0.1,0.3,0.2l-0.1-1.5l-17,10.7l-40.7,25.6l-49.3,31L268,346.6l-13.9,8.8
		c-2.2,1.4-4.6,2.7-6.7,4.2l-0.3,0.2l3.9,0.5l-16.9-10.7L193.4,324l-49.2-31l-42.5-26.8l-14-8.8l-4.4-2.8c-0.7-0.6-1.5-1-2.3-1.4
		c-0.1-0.1-0.2-0.1-0.3-0.2l0.1,1.5l16.6-12c13.3-9.6,26.6-19.3,39.9-28.9c16.2-11.7,32.4-23.3,48.6-35
		c14.1-10.1,28.3-20.2,42.5-30.2c7.2-5.1,14.4-10.4,22-14.9c0.7-0.4-0.1,0-0.4,0c0.9,0,1.8-0.6,1.2-1.5S249,131.1,248,131.1z" fill="#59BE4C"></path><path class="st1" d="M218.9,306.9c0,0,49.6-71.6,78.6-54.3c2.2,1.3,4.1,3,5.7,5l-0.1-0.8c0,0,51.9,78,42.3,117.2
		c-8.5,34.6-39.6,43.4-58.1-17.6C265.3,348.2,228.5,322.6,218.9,306.9z" fill="#FFFFFF"></path><path class="st2" d="M220.9,308.3l0.4-0.5l0.2-0.3c0.3-0.4,0,0,0,0l0.6-0.9c1.3-1.8,2.7-3.6,4-5.3c4.4-5.8,9.1-11.4,13.9-16.8
		c5.9-6.6,12.2-12.8,19-18.5c6.2-5.1,13-9.9,20.7-12.5c3.1-1.1,6.4-1.6,9.7-1.5c0.1,0,0.1,0,0.2,0l0.5,0.1c0.4,0,0.9,0.1,1.3,0.2
		c0.8,0.1,1.6,0.3,2.3,0.6c-0.4-0.1,0.5,0.2,0.7,0.2c0.4,0.2,0.8,0.3,1.2,0.5s0.7,0.3,1,0.5s-0.2-0.2,0.3,0.2s0.8,0.5,1.2,0.8
		c1.4,1,2.7,2.3,3.8,3.6c1,1.2,3.7,1.4,3.4-0.8l-0.1-0.8l-3.8,0.3c2.1,3.1,4.1,6.4,6,9.6c4.8,7.9,9.3,15.9,13.6,24.1
		c5.4,10.2,10.1,20.7,14.3,31.4c4,10.5,7.4,21.2,8.6,32.4c0.6,4.7,0.6,9.4,0,14.1c-0.7,4.6-2,9.2-4,13.5c-1.6,3.8-3.8,7.2-6.5,10.2
		c-2.2,2.5-5,4.4-8.2,5.5c-0.4,0.1-0.8,0.2-1.2,0.3c-0.2,0.1,0.1,0,0.1,0l-0.3,0.1l-0.6,0.1c-0.8,0.1-1.6,0.2-2.4,0.2h-0.6h-0.3h0.1
		c-0.4,0-0.9-0.1-1.3-0.2s-0.8-0.1-1.1-0.2l-0.6-0.1l-0.3-0.1c-0.4-0.1,0.2,0.1,0,0c-0.9-0.3-1.7-0.6-2.5-1l-0.6-0.3l-0.4-0.2
		l-0.4-0.2l-0.8-0.5c-0.9-0.6-1.7-1.2-2.5-1.9c-0.5-0.4,0.1,0.1-0.2-0.2l-0.7-0.6c-0.4-0.4-0.8-0.8-1.3-1.2
		c-0.9-0.9-1.7-1.9-2.5-2.8c0,0-0.4-0.5-0.2-0.2l-0.1-0.2c-0.2-0.3-0.4-0.6-0.6-0.9c-0.4-0.6-0.8-1.1-1.2-1.7
		c-1.8-2.6-3.4-5.4-4.9-8.2c-1.6-3.2-3.1-6.6-4.4-9.9c-0.8-2-1.5-3.9-2.2-5.9c-0.3-1-0.7-2-1-2.9c-0.3-1.2-0.7-2.5-1.2-3.6
		c-0.9-1.4-3-1.9-4.5-2.5s-2.7-1.1-4-1.8c-2.9-1.3-5.7-2.8-8.5-4.3c-6.1-3.3-12-7-17.8-10.9c-10.7-7.2-21.4-15.2-29.9-25
		c-0.4-0.5-0.8-1-1.2-1.5c-0.1-0.1-0.1-0.2-0.2-0.3c-0.3-0.3,0.2,0.3,0,0l-0.5-0.7c-0.7-0.9-1.3-1.8-1.9-2.7s-1.9-1.8-3-1.4
		s-0.9,1.9-0.4,2.8c2.5,3.8,5.4,7.4,8.7,10.5c4.2,4.1,8.6,8,13.2,11.6c9.9,7.9,20.5,14.9,31.6,21c5.3,2.9,10.7,5.5,16.4,7.6
		l-1.8-1.8c3.5,11.3,7.9,22.8,14.9,32.4c4.4,6,10,11.6,17.3,13.7c5.5,1.5,11.4,0.3,16-3.2c5.3-3.9,8.9-9.9,11.3-15.8
		c2.9-7.2,4.3-14.9,3.9-22.7c-0.4-8.8-2.4-17.5-5-25.9c-5.4-17.8-13.5-34.8-22.4-51.2c-5.1-9.3-10.3-18.6-16.2-27.4l-0.3-0.4
		c-0.5-0.9-1.5-1.5-2.5-1.5c-0.8,0.1-1.4,0.8-1.3,1.6c0,0.1,0,0.1,0,0.2l0.1,0.8l3.4-0.8c-5.6-6.9-14.7-10-23.3-8
		c-8.1,1.8-15.3,6.2-21.8,11.1c-7.2,5.6-13.9,11.8-20.1,18.5c-5.4,5.7-10.4,11.7-15.2,17.9c-1.6,2-3.1,4.1-4.6,6.1
		c-0.9,1.1-1.7,2.2-2.4,3.4c0,0.1-0.1,0.1-0.1,0.1c-0.7,1,0.4,2.5,1.2,3.1c0.7,0.7,1.9,0.7,2.6-0.1
		C220.8,308.5,220.8,308.4,220.9,308.3z" fill="#000005"></path><path class="st2" d="M327,234c9.7-35-11.5-48.1-27.2-51.7s-27.2,0.9-31.2,7.1c-3,4.6,4.5,35.7,4.5,35.7l23.8,28.8
		C296.8,253.8,319.6,260.7,327,234z" fill="#000005"></path><path class="st1" d="M255.5,237.7c-8-12.9,13-42.3,13-42.3c6,0.1,16.6-3.2,16.6-3.2c-6.7,16.8,12.8,26,12.8,26
		c6.2-8.5,16.5-2.8,13.9,6.3s-11.6,8.2-11.6,8.2s-0.2,23.7-1.9,27.2c0,0-17.2,7.3-23.8-8C274.5,252,260.9,246.4,255.5,237.7z" fill="#FFFFFF"></path><path class="st2" d="M257.6,236.5c-1.4-2.4-1.7-5.6-1.4-8.5c0.4-3.5,1.3-7,2.6-10.2c2.5-6.3,5.6-12.3,9.3-17.9
		c0.8-1.2,1.6-2.5,2.5-3.7l-2.8,1.2c6,0.1,12.2-1.6,17.9-3.4l-2.9-2c-2.3,5.7-1.8,12.2,1.5,17.4c2.4,3.7,5.7,6.8,9.5,9.1
		c0.9,0.6,1.9,1.1,2.9,1.6c1.2,0.4,2.5,0,3.3-1c0.8-1.1,1.8-2,3-2.6c0.8-0.3,1.6-0.4,2.5-0.3c0.9,0.2,1.8,0.6,2.4,1.3
		c0.7,0.7,1.2,1.5,1.5,2.5c0.7,2.6,0.2,5.5-1.4,7.7c-0.3,0.4-0.6,0.8-1,1.1l-0.7,0.6c-0.1,0.1-0.3,0.3-0.5,0.3
		c-0.2,0.1-0.5,0.3-0.7,0.4s-0.6,0.3-0.2,0.1c-0.5,0.2-1,0.4-1.5,0.5c-0.2,0.1-0.7,0.1-0.2,0.1l-0.7,0.1c-0.4,0-0.8,0.1-1.2,0.1
		c-0.8,0.1,0.4,0-0.2,0h-0.3c-1.2-0.1-3.1,0.7-3.2,2.2c-0.1,7.4-0.2,14.9-1,22.2c-0.1,1-0.2,2-0.4,3c0,0.2-0.1,0.4-0.1,0.6
		c0.1-0.4,0,0,0,0.1c-0.1,0.3-0.2,0.5-0.3,0.8l1.8-1.5c-0.4,0.2-0.9,0.3-1.3,0.5s-0.9,0.3-1.4,0.4l-0.8,0.2c-0.1,0-0.7,0.1,0,0
		l-0.5,0.1c-0.7,0.1-1.4,0.2-2.1,0.3c-0.4,0-0.8,0.1-1.1,0.1h-0.5c-0.3,0-0.3,0,0,0h-0.4c-1.6,0-3.2-0.3-4.7-0.8
		c-1.7-0.6-3.3-1.6-4.6-2.9c-0.7-0.8-1.4-1.6-2-2.5c-0.7-1.1-1.1-2.9-2.4-3.4c-2.1-0.9-4.2-2-6.3-3.2
		C264.9,244.4,260.5,241,257.6,236.5c-1.3-1.9-5.8,0.2-4.3,2.5c2.9,4.6,7.4,8,11.9,10.7c2.6,1.6,5.2,2.9,8,4.1l-1.1-1
		c2.4,5.4,6.6,9.2,12.4,10.5c4.1,0.7,8.2,0.5,12.2-0.7c0.7-0.2,1.4-0.4,2.1-0.7c2.1-0.9,2.3-3,2.6-4.9c0.6-4.6,0.9-9.3,1-14
		c0.1-3.4,0.2-6.9,0.2-10.3l-3.2,2.2c4.9,0.4,9.7-1.8,12.6-5.7c2.1-3,3.3-7.1,2.1-10.7c-1.1-3.1-3.7-5.4-7-6
		c-4.5-0.8-8.7,1.8-11.3,5.3l3.4-1.1c-0.3-0.1,0.5,0.3,0.3,0.2c-0.1-0.1-0.3-0.1-0.4-0.2c-0.5-0.2-0.9-0.5-1.3-0.8
		c-1.5-0.9-2.9-1.9-4.2-3c-3.3-2.7-6.3-6.6-7.2-11.1c-0.6-3.1-0.2-6.3,1-9.2c0.7-1.8-1.6-2.4-2.9-2c-4.3,1.5-8.8,2.5-13.3,3
		c-1.7,0.2-3.6-0.2-4.8,1.3c-0.1,0.1-0.2,0.3-0.3,0.4c-0.6,0.9-1.2,1.8-1.9,2.8c-5.1,7.9-9.9,16.6-12.1,25.8
		c-1.2,5-1.6,10.6,1.1,15.2C254.6,240.9,259,238.8,257.6,236.5z" fill="#000005"></path><path class="st2" d="M287,229.4c0,0.3,0,0.6,0,1V230c0,1.3-0.2,2.7-0.7,3.9l0.1-0.4c-0.1,0.4-0.3,0.7-0.5,1c0,0.1-0.1,0.1-0.1,0.2
		c-0.2,0.3,0.3-0.3,0-0.1c-0.1,0.1-0.2,0.2-0.4,0.4l-0.1,0.1c-0.2,0.1,0.4-0.2,0.2-0.1c-0.1,0-0.2,0.1-0.2,0.1l-0.1,0.1
		c-0.2,0.1,0.2-0.1,0.2-0.1s-0.2,0.1-0.3,0.1H285c-0.3,0.1,0.4,0,0.3,0h-0.5c-0.3,0,0.2,0,0.3,0s-0.2,0-0.4-0.1
		c-0.1,0-0.3-0.1-0.4-0.1c-0.3-0.1,0.4,0.2,0.2,0.1l-0.2-0.1c-0.3-0.1-0.7-0.3-1-0.5c-0.8-0.4-1.9-0.2-2.5,0.5
		c-0.5,0.9,0.2,1.6,0.9,2c1.4,0.8,3,1.1,4.5,0.9c1.2-0.2,2.2-0.9,2.9-1.9c0.9-1.5,1.4-3.2,1.4-5c0-0.5,0-1.1,0-1.6
		c-0.1-0.4-0.3-0.8-0.7-1c-0.4-0.3-0.9-0.4-1.4-0.4c-0.9,0-1.7,0.5-1.6,1.4L287,229.4z" fill="#000005"></path><path class="st1" d="M270.7,214.5c-3.8,1.8-7.8,3.1-12,3.8c-14,2.5-15.6,7.4-11.2,10.1s23.4,0.4,23.4,0.4" fill="#FFFFFF"></path><path class="st2" d="M268.6,213.2c-4.2,2.3-9,3.1-13.7,4.1c-2.9,0.5-5.7,1.4-8.4,2.8c-1.3,0.7-2.8,1.7-3.3,3.2
		c-1.1,3.4,3.9,6,6.4,6.7c4.2,1.3,8.9,1,13.2,0.8c3.4-0.2,6.8-0.4,10.1-0.8c0.8-0.1-1-1.5-1.1-1.6c-0.9-0.7-1.9-1-3-1h-0.3l-1.6,0.2
		c-1.7,0.2-3.5,0.3-5.2,0.4c-4,0.4-8.1,0.4-12.1,0c-0.4,0-0.8-0.1-1.2-0.2c-0.1,0-0.6-0.1-0.4-0.1s-0.3-0.1-0.4-0.1
		c0.3,0.1,0.3,0.1,0,0c0.1,0.1,0.9,0.5,0.6,0.3c0.3,0.2,0.2,0.2,0,0c0.3,0.3,0,0-0.1-0.1s0.1,0.1-0.1-0.1c-0.1-0.1-0.1-0.2-0.2-0.3
		c0,0-0.2-0.4-0.2-0.5c-0.1-0.4-0.1-0.9,0.1-1.3c0.6-1.3,1.7-2.3,3.1-2.9c2.4-1.2,4.9-2,7.4-2.5c4.9-1.1,10-1.9,14.5-4.2
		c0.7-0.4-0.9-1.4-1.1-1.6C270.9,213.8,269.3,212.8,268.6,213.2L268.6,213.2z" fill="#000005"></path><path class="st2" d="M279.1,212.7c0,0-2.2-0.1-2.1,2s2.7,2.1,3.2,0.2c0.3-0.8-0.1-1.8-0.9-2.1C279.2,212.7,279.2,212.7,279.1,212.7
		z" fill="#000005"></path><path class="st2" d="M265.4,208.5c0,0-2.2-0.1-2.1,2s2.7,2.1,3.2,0.2c0.3-0.8-0.1-1.8-0.9-2.1C265.5,208.5,265.5,208.5,265.4,208.5
		z" fill="#000005"></path><path class="st2" d="M312.7,241.6c0.5,3.2,1.5,6.3,2.8,9.3c1.7,4,4.8,8.5,9.8,7.4c3.6-0.8,6.7-3.4,8.9-6.2c1.6-2,3-4.7,2.5-7.4
		c-0.9-4.6-6-6.3-10-4.4c-6.7,3.2-5.9,11.3-3.7,17.2c1.4,3.7,3.4,7.1,6,10c2,2.2,4.5,4.5,7.4,5.5c5.6,1.9,11.5-3.2,10.9-9
		c-0.3-3.7-3.3-6.5-6.6-7.9c-3.8-1.7-8.2-1.2-11.5,1.4c-4,3.4-2.9,8.5-1,12.8c0.8,1.8,1.8,3.5,2.8,5.2c0.8,1.2,5-1.5,4.2-2.7
		c-1.7-2.6-3.1-5.4-4-8.4c-0.5-1.6-0.6-3.4-0.2-5.1c0.1-0.2,0.1-0.3,0.2-0.5s-0.2,0.3,0.1-0.1l0.2-0.4c-0.5,0.7,0.4-0.3-0.1,0.1
		s-0.1,0.1,0,0c0.3-0.2,0,0,0,0s-0.3,0.2,0,0s-0.4,0.2-0.3,0.2c0.1-0.1,0.3-0.2,0.4-0.2c-0.5,0.1-0.2,0.1,0.1,0c0,0-0.4,0.1,0,0
		l0.5-0.1h0.3h0.4c3.8,0,7.2,2,9.2,5.2c0.7,1.3,1,2.8,0.8,4.2c-0.2,1-0.6,1.9-1.1,2.8c0.1-0.1,0-0.1,0.1-0.1
		c-0.3,0.2,0.8-0.5,0.3-0.2c0.2-0.1,0.3-0.1,0.1-0.1c-0.2,0-0.3,0-0.5,0c-2.3,0-4.5-1.5-6.1-2.9c-2.4-2-4.4-4.5-6-7.2
		c-1.9-3-3.2-6.3-3.8-9.8c-0.4-2.3-0.6-5.5,0.6-7.3c0-0.1,0.4-0.7,0.2-0.3c0.1-0.1,0.1-0.2,0.2-0.2c0,0-0.4,0.3-0.1,0.1
		s-0.2,0.1-0.1,0.1c-0.3,0.2-0.1,0.1,0,0c-0.5,0.3-0.2,0,0,0c0.4,0-0.3,0,0.1,0h0.3c0.3,0-0.3,0,0,0c0.4,0,0.7,0,1.1,0.1
		c3,0.7,4.8,3.6,4.2,6.6c-0.1,0.4-0.2,0.9-0.5,1.3c-0.5,1.1-1.2,2.1-2.1,2.9c-0.4,0.4-0.8,0.7-1.2,1.1c0.2-0.2-0.8,0.5-0.4,0.3
		s-0.9,0.4-0.3,0.2c-0.1,0-0.6,0.2-0.5,0.2s-0.4,0.1-0.5,0.1c-0.1,0-0.3,0-0.4,0c-0.2,0-0.5,0-0.7-0.1c-0.7-0.2-1.4-0.5-2.1-1
		c-1.4-1.2-2.6-2.8-3.4-4.5c-1.5-3-2.5-6.2-3.2-9.5l-0.1-0.6C316.8,237.9,312.5,240.2,312.7,241.6L312.7,241.6z" fill="#000005"></path><polygon class="st2" points="216.4,303.4 287.1,337.5 217.2,359.2 	" fill="#000005"></polygon><polygon class="st2" points="222.8,278.5 217.2,359.2 145,323.5 147.6,241.3 	" fill="#000005"></polygon><path class="st1" d="M192.1,296.8c-0.9-2.7-3.4-4.6-6.2-4.6c-2.7-0.1-5.3,1.5-7,3.5c-1.9,2.2-3.4,5.1-3.3,8.2
		c0.2,2.7,1.6,5.2,3.9,6.7c2.2,1.3,4.6,2.2,7.2,2.5c1.3,0.3,2.7-0.4,3.1-1.8c0.4-1.3-0.4-2.7-1.7-3.1c-1.1-0.2-2.1-0.4-3.2-0.7
		l-0.8-0.3c-0.1,0-0.9-0.4-0.4-0.1c-0.4-0.2-0.9-0.4-1.3-0.7c-0.1-0.1-0.8-0.6-0.3-0.2c-0.2-0.2-0.4-0.3-0.6-0.5
		c-0.1-0.1-0.4-0.6-0.1-0.1c-0.2-0.2-0.3-0.5-0.4-0.7s-0.1-0.2,0,0c-0.1-0.1-0.1-0.3-0.1-0.4c0-0.2-0.1-0.3-0.1-0.5c0,0.2,0,0.2,0,0
		c0-0.3,0-0.6,0-0.9c0,0.4,0.1-0.5,0.1-0.6c0.3-1.2,0.9-2.2,1.6-3.2c-0.3,0.3,0.3-0.4,0.4-0.4s0.3-0.4,0.5-0.5s0.8-0.6,0.4-0.4
		c0.3-0.2,0.5-0.3,0.8-0.5c0.4-0.3-0.2,0,0.3-0.1c0.1,0,1.1-0.2,0.4-0.2c0.3,0,0.6,0,0.8,0c-0.6,0,0.2,0.1,0.4,0.1
		c0.6,0.1-0.3-0.2,0.2,0c0.1,0.1,0.8,0.6,0.4,0.2c0.1,0.1,0.5,0.7,0.3,0.2c0.1,0.1,0.1,0.2,0.2,0.4c-0.1-0.3-0.1-0.3,0,0
		c0.4,1.3,1.7,2.1,3.1,1.7C191.8,299.4,192.6,298,192.1,296.8L192.1,296.8z" fill="#FFFFFF"></path><path class="st1" d="M219.5,308.8c0,0.8,0,1.2,0,2.2c0,1.3-0.1,2.5-0.1,3.8c-0.2,3.5-0.3,7-0.5,10.5c-0.4,7.5-0.9,15-1.4,22.5
		c-0.2,2.4-0.3,4.9-0.6,7.3c-0.2,1.7,3.4,2.4,3.7,0.8c0.8-5.5,0.9-11.1,1.3-16.7c0.5-7.6,0.9-15.2,1.2-22.9c0.1-2.5,0.2-5,0.2-7.4
		C223.3,307.4,219.6,306.9,219.5,308.8L219.5,308.8z" fill="#FFFFFF"></path><path class="st1" d="M261.4,335.9c-1.2-0.8-2.6-1.5-3.9-2.2c-2.9-1.6-5.8-3.2-8.7-4.8l-19.1-10.5l-4.4-2.4c-0.8-0.4-1,0.7-0.9,1.2
		c0.1,0.9,0.7,1.7,1.5,2.1c10.2,5.6,20.5,11.3,30.7,16.9c1.6,0.9,3.3,1.7,4.8,2.7c0.6,0.4,1.2,0.1,1.2-0.6
		C262.6,337.4,262.2,336.5,261.4,335.9z" fill="#FFFFFF"></path><path class="st1" d="M248,340.3l-19.9-11.7l-2.8-1.6c-0.6-0.4-1.7-0.4-1.9,0.4s0.7,1.7,1.4,2l19.9,11.7l2.8,1.7
		c0.6,0.4,1.7,0.4,1.9-0.4S248.6,340.6,248,340.3L248,340.3z" fill="#FFFFFF"></path><path class="st1" d="M236.3,344.4l-9.9-6.6l-1.4-0.9c-0.9-0.5-2-0.2-2.6,0.6c-0.5,0.7-0.4,1.7,0.3,2.2c0,0,0.1,0.1,0.1,0.1l9.9,6.6
		l1.4,0.9c0.9,0.5,2,0.2,2.6-0.6c0.5-0.7,0.4-1.7-0.3-2.2C236.4,344.4,236.3,344.4,236.3,344.4z" fill="#FFFFFF"></path><path class="st1" d="M252.3,329.1C252.3,329.1,252.9,328.8,252.3,329.1S252.8,328.9,252.3,329.1l-0.4,0.2c-0.8,0.3-1.6,0.6-2.4,1
		c-2.3,0.9-4.6,1.8-7,2.7c-4.9,1.9-9.8,3.7-14.8,5.6l-3.4,1.2c-0.4,0.2-1.9,0.7-2,1.3s1.2,0,1.4-0.1c8.3-3.1,16.7-6.2,25-9.5
		c1.6-0.6,3.2-1.2,4.8-2c0.2-0.1,1.4-0.8,1-1s-1.9,0.5-2.2,0.7V329.1z" fill="#FFFFFF"></path><polygon class="st1" points="249.1,360.8 78.8,253.6 78.8,452 419.5,452 419.5,253.6 	" fill="#FFFFFF"></polygon><path class="st0" d="M251.2,359.4l-17-10.7l-40.7-25.6l-49.2-31l-42.6-26.8l-14-8.8l-4.4-2.8c-0.7-0.5-1.5-1-2.3-1.4
		c-0.1-0.1-0.2-0.1-0.3-0.2c-0.7-0.4-4.2,1.9-4.2,2.6v195.4c-0.1,0.9-0.1,1.8,0,2.7c0,0.1,0,0.2,0,0.3h0.1h327c4.4,0,8.8,0.1,13.2,0
		h0.6c0.8,0,4.1-1.8,4.1-2.7V255.3c0.1-0.9,0.1-1.8,0-2.7c0-0.1,0-0.2,0-0.3c0-0.2-2.3,1-2.3,1l-17,10.7l-40.7,25.6l-49.3,31
		l-42.5,26.8c-6.9,4.3-13.8,8.6-20.6,13l-0.3,0.2c-0.2,0.1-2.1,1.3-1.9,1.6s2.2-0.9,2.3-1l17-10.7l40.7-25.6l49.3-31l42.5-26.8
		c6.9-4.3,13.9-8.5,20.6-13l0.3-0.2l-2.3,1v190.5c0,2.5-0.2,5.2,0,7.7c0,0.1,0,0.2,0,0.3l4.1-2.7H82c-0.3,0-0.7,0-1,0
		c-0.3-0.1-0.1,0.1-0.1,0c-0.3-0.6,0-2.4,0-3.1V252.2l-4.2,2.6l17,10.7l40.7,25.6l49.2,31l42.6,26.8l14,8.8l4.4,2.8
		c0.7,0.5,1.5,1,2.3,1.4c0.1,0.1,0.2,0.1,0.3,0.2c0.5,0.3,1.9-0.8,2.3-1C249.5,361,251.4,359.6,251.2,359.4z" fill="#59BE4C"></path><path class="st1" d="M102.5,437.4c0,0,128.3-115.9,147.6-112.8s134.7,107.1,134.7,107.1" fill="#FFFFFF"></path><path class="st0" d="M104.6,438.5c3.9-3.5,7.8-7,11.7-10.4c9.6-8.5,19.3-16.9,29-25.3c12.2-10.5,24.6-20.9,37.1-31.1
		c12-9.7,24.1-19.3,36.6-28.3c4.9-3.5,9.8-6.9,15-10.1c2.1-1.3,4.1-2.5,6.3-3.6c0.9-0.5,1.8-1,2.8-1.4c0.4-0.2,0.9-0.4,1.3-0.6
		l0.6-0.3l0.4-0.2c-0.4,0.1,0.3-0.1,0.4-0.1l0.5-0.2c0.4-0.1,0.7-0.2,1.1-0.4s0.6-0.2,0.9-0.2c0.1,0,0.3,0,0.4-0.1s-0.6,0.1,0,0
		l0.8-0.1c0.5-0.1-0.3,0-0.2,0c0.1,0,0.3,0,0.4,0c0.8,0-0.4-0.1,0.1,0c0.3,0.1,0.6,0.2,0.9,0.3s0.6,0.2,0.9,0.3s-0.6-0.3,0.1,0
		l0.6,0.3c0.8,0.4,1.6,0.7,2.3,1.1c1.9,1,3.8,2.1,5.6,3.3c2.5,1.5,4,2.6,6.5,4.4s5.1,3.6,7.6,5.5c5.9,4.4,11.7,8.9,17.5,13.5
		c13,10.3,25.7,20.9,38.3,31.7c11.3,9.6,22.6,19.4,33.7,29.2c6.1,5.4,12.2,10.9,18.2,16.3l0.8,0.7c1,0.8,2.4,0.9,3.5,0.4
		c0.7-0.3,1-1.1,0.7-1.8c-0.1-0.2-0.3-0.4-0.5-0.6c-4.3-3.9-8.6-7.7-13-11.5c-10.4-9.2-20.9-18.3-31.4-27.4
		c-12.7-10.9-25.5-21.7-38.5-32.3c-11.2-9.1-22.5-18.1-34.4-26.4c-4-2.9-8.2-5.5-12.6-7.8c-2.8-1.4-5.8-2.8-9-2.4
		c-3.7,0.4-7.2,2.1-10.4,3.8c-4.6,2.5-9.1,5.2-13.5,8.2c-12.2,8.2-23.9,17.1-35.3,26.3c-13,10.3-25.7,20.9-38.3,31.6
		c-10.8,9.2-21.5,18.4-32.1,27.8c-5.6,5-11.3,10-16.9,15l-0.8,0.7c-0.9,0.8-0.2,1.9,0.6,2.4C102.2,439.3,103.6,439.2,104.6,438.5
		L104.6,438.5z" fill="#59BE4C"></path><path class="st1" d="M283.1,321.5c0,0,4.8,81,39.2,83.1s26.6-64,3.7-105.9s-25.4-40.2-25.4-40.2" fill="#FFFFFF"></path><path class="st2" d="M281,320.7c0.2,3.9,0.7,7.7,1.1,11.5c1.1,8.9,2.7,17.7,4.8,26.4c2.4,9.7,5.5,19.4,10.4,28.2
		c4.3,7.7,10.4,15.3,19,18.5c8,3,17.7,1.7,23.5-4.9c6.6-7.4,7.9-18.4,8-27.9c0.2-13.1-2.3-26.3-5.8-38.8c-1.9-6.8-4.3-13.5-7-20
		c-3-6.9-6.3-13.7-10-20.3c-5.7-10.3-11.5-20.8-18.3-30.4c-1.1-1.7-2.4-3.3-3.8-4.7c-0.7-0.8-1.7-1.4-2.8-1.7c-0.3-0.1-0.7,0-1,0.1
		c-2,1.3,1.4,4.9,3.1,3.8c-0.6,0.2-1.2,0.1-1.7-0.2c0.5,0.3-0.2-0.2-0.2-0.2c0.1,0.1,0.2,0.2,0.4,0.3c0.1,0.1,0.1,0.1,0.2,0.2
		c0.4,0.3-0.5-0.6-0.1-0.1s1,1.2,1.5,1.8c0.8,1,1.5,2,2.2,3c0.2,0.3,0.4,0.6,0.6,0.9l0.2,0.3c0,0-0.3-0.4-0.1-0.1l0.4,0.7
		c0.5,0.8,1.1,1.7,1.6,2.5c3.2,5,6.2,10.2,9.2,15.4c3.9,6.9,7.9,13.8,11.4,20.9c2.9,6,5.4,12.2,7.5,18.5c4.3,12.4,7.1,25.2,8.1,38.3
		c0.7,9.9,0.5,20.9-4.2,30c-1.7,3.3-4.2,6.1-7.5,8c-3.5,1.8-7.4,2.5-11.3,2c-0.9-0.1-1.9-0.3-2.8-0.5c0.5,0.1-0.3-0.1-0.4-0.1
		l-0.6-0.2c-0.5-0.2-0.9-0.3-1.4-0.5l-0.6-0.3l-0.4-0.2c0.3,0.1-0.4-0.2-0.5-0.2s-0.4-0.2-0.6-0.4c-0.4-0.2-0.8-0.5-1.2-0.7
		c-0.2-0.1-0.4-0.2-0.5-0.4l-0.3-0.2c-0.3-0.2,0.5,0.4,0,0c-0.8-0.6-1.5-1.2-2.2-1.9c-0.3-0.3-0.7-0.6-1-1l-0.2-0.2l-0.5-0.6
		c-0.7-0.8-1.4-1.6-2-2.4c-0.3-0.4-0.6-0.8-0.9-1.3c-0.1-0.2-0.3-0.4-0.4-0.6l-0.2-0.4c-0.3-0.4,0.1,0.1-0.1-0.1
		c-5.3-7.9-8.4-16.6-11-25.8c-1.3-4.6-2.4-9.2-3.3-13.9c-0.9-4.2-1.5-8-2.1-12.3c-0.7-5.1-1.3-10.2-1.7-15.4c0-0.2,0-0.5,0-0.7
		c-0.2-1.2-1-2.3-2.2-2.7c-0.9-0.3-2.2-0.2-2.1,1L281,320.7z" fill="#000005"></path><path class="st1" d="M307.9,316.7c0,0,5.9-35-7.3-34.6c0,0-1.4-9.6-11.6-6.2c0,0-4.6-6-11.2-6s-21,10-19.1,15.9s17,0.6,17,0.6
		c-1.4,2.9-2.4,5.9-2.8,9.1c0,0-13.7-1.4-14.2,5.2s7.5,18.4,12.7,18.6s5.4-3.4,5.4-3.4s1.2,3.9,9.1,7.5S307.9,316.7,307.9,316.7z" fill="#FFFFFF"></path><path class="st2" d="M310.3,317.3c0.7-4.2,1.1-8.5,1.3-12.8c0.3-6.4,0.4-13.9-2.9-19.6c-1.6-3-4.8-4.9-8.2-4.9l2.6,2.1
		c-0.3-2.1-1.2-4.1-2.6-5.7c-3.3-3.8-8.3-3.9-12.8-2.5l3.4,0.9c-2.9-3.8-7.2-6.3-11.9-7c-5.1-0.7-10.3,2.1-14.3,4.9
		c-3.7,2.5-8.5,6.4-8.8,11.2c-0.3,5.1,5.5,6.7,9.5,6.5c3.9-0.2,7.8-1,11.5-2.4l-3.5-3c-1.6,3-2.6,6.3-3,9.6l2.3-1.4
		c-2.4-0.2-4.9-0.2-7.3,0.1c-3.4,0.4-7.7,1.7-9,5.4c-0.5,2-0.4,4.1,0.3,6c0.7,2.4,1.7,4.6,3,6.7c2.2,3.7,5.5,8,9.9,9.3
		c3.8,1.2,9.3-0.5,9.5-5l-4.8,0.3c0.7,1.5,1.7,2.9,2.9,4c1.4,1.3,2.9,2.4,4.6,3.3c1.6,1,3.4,1.8,5.3,2.2c6.2,1.2,12.7-1.7,18-4.7
		c1.6-0.9,3.1-1.8,4.6-2.9c0.8-0.7,0.8-1.9,0.1-2.6c-0.1-0.1-0.2-0.2-0.3-0.3c-1-0.8-2.4-0.9-3.5-0.2l-0.8,0.5l-0.9,0.6l-0.5,0.3
		c-0.2,0.1,0,0,0.1,0l-0.5,0.3c-2.2,1.3-4.5,2.5-6.9,3.5c-2.3,1-4.8,1.6-7.3,1.7c-0.4,0-0.7,0-1-0.1s0.1,0-0.3-0.1
		c-0.7-0.1-1.3-0.4-1.9-0.7c-1.6-0.7-3.1-1.7-4.4-2.8c-0.9-0.6-1.6-1.5-2.2-2.4c-0.1-0.1-0.2-0.3-0.3-0.5c0.4,0.6,0.1,0.2,0,0.1
		l-0.1-0.3c-0.7-2.2-4.7-2.2-4.8,0.3c0.1-1,0-0.2-0.1,0.1s0.2-0.3-0.1,0.2l-0.2,0.3c0,0.1,0.2-0.1-0.1,0.1c-0.5,0.4-1,0.6-1.6,0.6
		c-0.2,0-1.2,0-0.9,0s-1-0.4-0.4-0.1c-1.3-0.6-2.4-1.4-3.3-2.5c-1.4-1.5-2.5-3.1-3.5-4.8c-1-1.7-1.8-3.5-2.3-5.3
		c-0.2-0.7-0.4-1.5-0.4-2.3c-0.1-0.6-0.1-1.3,0.1-1.9c0-0.1,0.1-0.4,0,0c0.1-0.1,0.1-0.3,0.2-0.4c0.1-0.1,0.2-0.3,0.3-0.4l0,0
		c0.2-0.2,0.5-0.4,0.8-0.6c-0.3,0.2,0.5-0.2,0.6-0.3c1.2-0.5,2.5-0.8,3.8-1c0.7-0.1,1.3-0.2,2-0.2c0.7,0,1.4,0,2.1,0
		c0.7,0,1.3,0,2,0.1c0.8,0.1,2.1-0.5,2.3-1.4c0.3-2.2,0.8-4.3,1.6-6.4c0.3-0.8,0.6-1.5,1-2.2c1.2-2.2-1.8-3.6-3.5-3
		c-0.2,0.1-0.4,0.1-0.6,0.2s-0.8,0.3-0.2,0.1l-1.1,0.3c-1.7,0.5-3.4,0.9-5.1,1.1c-0.8,0.1-1.6,0.2-2.3,0.2c-0.5,0-1,0-1.4,0H263
		l-0.4,0c0.3,0,0.3,0,0,0s-1.3-0.5-0.7-0.2l-0.5-0.3c0.1,0,0.5,0.2,0.1,0c-0.1-0.1-0.5-0.5-0.1-0.1c-0.1-0.1-0.2-0.3-0.3-0.4
		c0.3,0.4,0-0.1,0-0.2c-0.1-0.5,0,0.3,0-0.2c-0.1-0.6,0-1.3,0.3-1.9c0.4-0.7,0.8-1.4,1.3-2.1c1.3-1.6,2.8-3.1,4.5-4.3
		c3.1-2.4,7-4.6,10.7-5c-0.6,0.1,0,0,0.1,0c0.5,0,1,0,1.4,0.1c0.6,0.1,1.1,0.3,1.7,0.5c1.1,0.4,2.1,0.9,3,1.6
		c0.9,0.6,1.7,1.3,2.4,2.1c0.3,0.2-0.4-0.4,0,0l0.3,0.4l0.2,0.3c0.8,1,2.2,1.4,3.4,0.9c0.8-0.3,1.6-0.4,2.5-0.5c0.4,0,0.9,0,1.3,0
		c0.4,0-0.5-0.1,0.2,0l0.5,0.1c0.7,0.2-0.2-0.1,0.1,0l0.5,0.2c0.1,0,0.5,0.3,0.3,0.1s0.2,0.2,0.2,0.2c0.2,0.2,0.4,0.4,0.6,0.6
		s-0.2-0.3,0,0l0.3,0.4c0.1,0.2,0.3,0.4,0.4,0.6s-0.1-0.2,0,0c0.1,0.1,0.1,0.2,0.2,0.4c0.2,0.4,0.4,0.8,0.5,1.2
		c0.1,0.3,0.3,1.3,0.2,0.5c0,0.1,0.1,0.2,0.1,0.4c0.2,1.3,1.3,2.2,2.6,2.1c0.3,0,0.6,0,0.9,0s-0.6-0.2-0.1,0c0.1,0,0.3,0.1,0.4,0.1
		c0.7,0.2-0.2-0.2,0.3,0.1c0.1,0.1,0.8,0.5,0.5,0.3s0.4,0.3,0.5,0.4c0.5,0.4-0.1-0.2,0.2,0.2c0.2,0.2,0.3,0.4,0.5,0.6s0.6,1,0.3,0.5
		c0.6,1.2,1.1,2.4,1.4,3.7c0.3,1.4,0.6,2.7,0.7,4.1c0.3,3.3,0.4,6.6,0.2,9.9c-0.1,1.5-0.2,3-0.3,4.5c-0.1,0.9-0.1,0.8-0.1,1.5
		s-0.1,1.2-0.2,1.9c-0.2,1.4-0.3,2.7-0.6,4.1c-0.1,1.2,0.7,2.3,1.9,2.6C308.3,318.9,310.1,318.6,310.3,317.3z" fill="#000005"></path><path class="st1" d="M272.5,303.3c0,0,7.1,6.2,4.1,12.5" fill="#FFFFFF"></path><path class="st2" d="M270.7,304.9l0.3,0.3l0.3,0.3c0.2,0.2-0.3-0.3-0.1-0.1l0.3,0.3c0.7,0.8,1.4,1.7,2,2.7c0.3,0.6,0.7,1.2,0.9,1.8
		c0,0.1,0.2,0.6,0.1,0.2c0,0.1,0.1,0.3,0.1,0.4c0.1,0.3,0.2,0.7,0.3,1c0.1,0.4,0.1,0.7,0.1,1.1c0,0.1,0,0.6,0,0.4s0,0.4,0,0.4
		c-0.1,0.4-0.1,0.8-0.2,1.1c-0.1,0.4,0.1-0.3-0.1,0.2c-0.1,0.2-0.2,0.4-0.3,0.7c-0.4,0.6-0.2,1.4,0.4,1.8c0.2,0.1,0.5,0.2,0.8,0.2
		c1.3,0,2.4-0.8,3-1.9c2.4-5.1-0.5-10.7-4.4-14.2c-0.5-0.3-1-0.3-1.5-0.2c-0.6,0.1-1.2,0.4-1.7,0.9
		C270.4,303,269.8,304.2,270.7,304.9L270.7,304.9z" fill="#000005"></path><path class="st2" d="M298.2,302.4c-0.6,3-2.1,5.7-4.1,8c-0.6,0.6-1.3,1.1-2.1,1.5c-0.4,0.2-0.8,0.3-1.2,0.2c-0.4,0,0,0-0.4,0
		l-0.5-0.1c0.1,0,0.1,0,0,0c-0.5,0,0.2,0.1,0.1,0.1c-0.1,0-0.2-0.1-0.4-0.2c0.8,0.5-0.5-0.6,0,0c-0.2-0.2-0.4-0.4-0.5-0.7
		s-0.1-0.1-0.1-0.1c-0.1-0.2-0.2-0.3-0.3-0.5c-0.7-1.4-1.1-2.9-1.3-4.4c-0.3-1.9-0.3-3.9-0.1-5.8c0.3-4,1.5-7.9,3.5-11.4
		c1-1.8,2.5-3.2,4.3-4.3c0.3-0.2,0.7-0.4,1-0.5c0.5-0.2,1-0.3,1.6-0.4c0.3-0.1-0.3,0,0,0l0.4,0l0.9-0.1c0.5,0,1,0,1.6,0.1
		c1,0.1,2.3-0.3,2.3-1.5s-1.6-1.9-2.6-2c-4.9-0.7-9.7,1.2-12.8,5c-2.8,3.8-4.5,8.3-4.9,12.9c-0.5,4.1-0.4,8.7,1.4,12.5
		c2,4.3,7.1,6.1,11.4,4.1c0.2-0.1,0.4-0.2,0.5-0.3c3.7-2,6-6.8,6.9-10.7C303.5,301.6,298.7,300.2,298.2,302.4L298.2,302.4z" fill="#000005"></path><path class="st2" d="M287.3,274.8c-5,1.4-9.4,4.4-12.5,8.7c-2.9,4-4.5,8.8-4.6,13.7c-0.1,3.7,1.1,7.5,4.4,9.5
		c3.8,2.1,8.4,2,12.1-0.3c0.9-0.6,0-1.3-0.7-1.6c-1.1-0.5-2.3-0.5-3.4-0.1c-0.5,0.4-1.1,0.7-1.7,0.9c-0.3,0.1-0.7,0.2-1,0.3
		c-0.2,0-0.4,0-0.5,0.1c0.3,0-0.3,0-0.3,0s0.5,0,0,0s0,0,0.1,0l-0.4-0.1c0.4,0.1-0.3-0.1-0.2-0.1c-0.2-0.1-0.4-0.3-0.6-0.4
		c-2.6-2.1-2.8-6-2.5-9c0.6-7.5,4.9-14.2,11.4-18c1.2-0.7,2.5-1.3,3.9-1.6c1-0.2,1-1,0.2-1.5C289.7,274.7,288.4,274.5,287.3,274.8
		L287.3,274.8z" fill="#000005"></path><path class="st2" d="M323.2,342.2c-1.8-3.1-3.1-6.4-4.6-9.6c-2-4.4-4.1-8.9-6.3-13.2c-0.6-1.4-1.4-2.8-2.4-4.1
		c-0.8-0.9-4.8,2-4.2,2.6c0.8,1.1,1.5,2.2,2,3.4c1,2,2,3.9,2.9,5.9c2.1,4.4,4.1,8.8,6.2,13.2c0.7,1.4,1.3,2.9,2.1,4.3
		C319.5,345.7,323.8,343.1,323.2,342.2L323.2,342.2z" fill="#000005"></path><path class="st0" d="M121.3,341.1c-2.8,0-5.9,0.6-7.7,2.9c-1.7,2.2-1.8,5.3-0.1,7.6c1.7,2.1,4.7,2.7,7.1,1.6c2.7-1.2,4-4,4.9-6.7
		l-4.3-1.1c0.4,4.6,4,8.4,8.6,9c5.4,0.5,6.4-5.6,6.3-9.7c-0.1-5-2.2-9.4-6.7-11.9c-10-5.1-22.1-1.1-27.2,8.8
		c-0.8,1.5-1.4,3.2-1.7,4.8c-1.6,8.3,2.4,17.3,10,21.3c5,2.5,10.8,2.7,16,0.6c4.7-2.1,8.7-5.6,11.4-10c0.6-1.1,0.4-2.5-0.6-3.4
		c-0.8-0.7-2.4-1-3.1,0c-3.9,6-10.5,11-18,10c-6.6-0.9-10.9-6.4-11.5-12.8c-0.5-6.1,2.7-12,8.1-14.8c2.7-1.5,5.7-2.2,8.7-2.1
		c2.9,0.1,6.4,0.9,8.4,3.1c1.1,1.4,1.7,3.1,1.8,4.9c0.2,1.7,0,3.5-0.5,5.2c-0.7,1.6-2.3,1.4-3.6,0.6c-1.2-0.8-1.9-2.2-2-3.6
		c-0.2-2-3.5-3.5-4.3-1.1c-0.4,1.5-1.1,2.9-2.2,4c-0.3,0.3-2,1.3-2.5,0.6c-0.2-0.3,0.5-1.5,0.8-1.8c1.2-1.1,3.1-1.2,4.6-1.3
		C125.1,345.8,124,341.1,121.3,341.1L121.3,341.1z" fill="#59BE4C"></path><path class="st0" d="M150.9,343.1c-3.3,0.8-4.9,4.3-5.2,7.5c-0.4,4,1.7,8.2,5.9,9.2c3.6,0.7,7.3-0.6,9.6-3.3
		c1.4-1.4,1.9-3.5,1.4-5.4c-0.6-1.8-3.1-4-5.1-3.2c-1.6,0.6-2.2,2.6-2.1,4.1c0.1,1.8,0.9,3.6,2.2,4.9c2.7,3,7.1,3.6,10.6,1.7
		c3.4-2.2,5.8-5.6,6.6-9.6c0.5-2,0.1-4-1-5.7c-1-1.6-3.1-3.5-5.2-3.3c-2.3,0.2-2.2,3.6-2.4,5.2c-0.2,2.3,0.1,4.6,1,6.7
		c1.7,4,5.9,7.6,10.4,7.1c2.4-0.2-0.4-4.1-2.2-4c-4.8,0.4-5.5-5.2-5.1-8.8c0.1-0.6,0.2-1.1,0.3-1.7l0.2-0.6c0,0-0.5,0-0.4-0.2
		c0,0.1,0.2,0.6,0.2,0.7c0.1,0.7,0.1,1.3-0.1,2c-0.6,2.4-1.8,4.6-3.4,6.5c-1.4,1.8-3.5,2.8-5.8,2.8c-1.6-0.1-2.4-1-1.9-2.7
		c0.1-0.4,0.3-0.7,0.5-1l0.1-0.1c0.6-0.5,0.1-1-1.5-1.3c-0.1,0.3-0.2,0.6-0.2,0.9c-0.4,1-1,1.9-1.8,2.6c-1.6,1.4-3.7,2.1-5.8,2
		c-0.2-0.1-0.4-0.1-0.6-0.1c-0.3,0-0.2-0.1-0.1,0.1c-0.2-0.3-0.3-0.7-0.4-1.1c-0.2-1.1-0.1-2.3,0.2-3.4c0.5-2.1,1.7-4.1,3.9-4.6
		c1.1-0.3,0.3-2-0.1-2.5C153.2,343.5,152.1,343,150.9,343.1L150.9,343.1z" fill="#59BE4C"></path></g><g id="mail"><path class="st1" d="M116.5,143.1c0,0-22.7-11.9-21.3-13.4s77.5-29.4,78.5-22.4s-12.4,48.8-16.4,49s-15.1-3.7-15.1-3.7
		S125,174.8,123,174.2S116.5,143.1,116.5,143.1z"></path><path class="st0" d="M116.6,141.4c-4.9-2.6-9.8-5.3-14.5-8.1c-1.4-0.9-2.9-1.8-4.3-2.7c-0.4-0.2,0,0,0.1,0.1l-0.4-0.3l-0.7-0.5
		c-0.1-0.1-0.3-0.3-0.5-0.4c-0.4-0.2,0.5,0.5,0.2,0.2s-0.3-0.5,0.2,0.2c0.3,0.6,0.3,1.2,0.1,1.8c0,0,0.1,0,0.1-0.1s-0.4,0.2-0.1,0.1
		s0.9-0.4,1.4-0.6c10.9-4.7,22.3-8.4,33.6-12.2c7.1-2.4,14.3-4.6,21.6-6.7c5.3-1.6,10.8-2.9,16.4-3.6c0.1,0,0.3,0,0.4,0h0.6
		c0.4,0,0.8,0,1.2,0s0.6,0.1,0.9,0.1s-0.5-0.1-0.1,0c0.1,0,0.3,0.1,0.4,0.1c-0.5-0.1-0.5-0.2-0.2-0.1c-0.2-0.1-0.8-0.6-0.7-0.6
		c-0.3-0.4-0.4-0.8-0.6-1.1s0-0.1,0,0.2c0.1-0.7,0,0,0,0.2s0,0.4,0,0.6c0,0.6-0.1,1.1-0.2,1.7c-0.9,7-3.1,14-5.3,20.7
		c-2.2,7-4.5,14.1-7.9,20.6c-0.2,0.5-0.5,1-0.8,1.5c-0.1,0.2-0.3,0.4-0.4,0.7s-0.5,0.7-0.2,0.3c-0.2,0.3-0.5,0.5-0.7,0.8
		c-0.1,0.1-0.2,0.1-0.3,0.2c0.2-0.2,0.4-0.2,0.1-0.1s0.6,0.1,0.1,0c-1.8-0.2-3.6-0.5-5.4-0.9c-2.1-0.5-4.1-1.1-6.1-1.8
		c-1-0.3-1.9-0.6-2.9-0.9c-0.3-0.1-1-0.2-1.3,0.1c-5.2,6.7-10.4,13.6-16.4,19.6c-0.5,0.6-1.1,1.1-1.8,1.6l-0.3,0.2c-0.2,0.2,0,0,0,0
		l-0.2,0.1c0.8,0,1.5,0.4,2,1c-0.2-0.2,0.5,0.7,0.2,0.3s0.2,0.7,0.1,0.2c-0.1-0.3-0.2-0.6-0.3-0.9s-0.1-0.4-0.2-0.6s0.1,0.4,0-0.2
		s-0.3-0.9-0.4-1.4c-1.3-5.1-2.2-10.4-3.1-15.6c-0.6-3.7-1.3-7.4-1.8-11.2c-0.3-1.2-1.1-2.2-2.3-2.7c-0.6-0.3-1.2,0-1.5,0.5
		c-0.1,0.3-0.1,0.6-0.1,0.8c1.3,8.8,2.7,17.8,4.8,26.5c0.7,2.6,2.5,9.7,6.4,6.6c1.6-1.3,3-2.8,4.3-4.3c1.9-2.1,3.8-4.4,5.6-6.6
		c2.8-3.3,5.5-6.7,8.1-10.2l-1.3,0.1c3.2,1.1,6.5,2.1,9.9,2.9c2.4,0.6,5.9,1.9,7.8-0.4c1.6-2.3,2.9-4.7,3.8-7.3
		c1.5-3.6,2.9-7.3,4.2-11c2.8-7.8,5-15.8,6.8-23.9c0.4-2.2,1.1-4.9,0.7-7.2c-0.5-2.1-2.4-3.7-4.6-3.8c-2-0.1-4,0-5.9,0.4
		c-2.8,0.4-5.6,1.1-8.4,1.8c-7.3,1.8-14.5,4-21.6,6.3c-12.8,4.1-25.5,8.4-38,13.5c-1.2,0.4-2.4,0.9-3.4,1.6c-2.1,1.7,1.7,4.8,3,5.7
		c5.7,4.1,12,7.4,18.2,10.7l1.5,0.8c0.8,0.4,1.9,0.5,2.1-0.6C118.4,143,117.7,141.9,116.6,141.4z"></path><path class="st1" d="M160.5,119c0,0-34.1,26.8-35,28.6s-2.5,26.6-2.5,26.6"></path><path class="st0" d="M158.8,119.7c-7.8,6.1-15.6,12.3-23.3,18.6c-3.8,3.1-7.7,6.1-11.3,9.5c-0.8,0.7-1.3,1.7-1.3,2.8
		c-0.4,2.7-0.6,5.5-0.9,8.2c-0.5,5.6-0.8,11.2-1.2,16.8c0,0.2,2.2-0.9,2.3-1c0.5-0.3,1.9-0.9,2-1.6c0.3-4.7,0.6-9.3,1-13.9
		c0.2-3.1,0.5-6.1,0.8-9.1c0.1-0.9,0.2-1.9,0.4-2.8c0-0.2,0.1-0.4,0.2-0.6c0.1-0.3-0.1,0.1,0.1-0.1c0.3-0.3,0.4-0.4,0.5-0.5l0.4-0.3
		l0.2-0.2c0.7-0.7,1.5-1.3,2.3-1.9c2.1-1.8,4.3-3.6,6.4-5.3c5.1-4.1,10.2-8.2,15.3-12.3c3.1-2.5,6.2-4.9,9.3-7.4
		c0.7-0.5,0.5-0.7-0.3-0.4c-1.1,0.5-2.1,1.1-3,1.8L158.8,119.7z"></path><line class="st3" x1="153.1" y1="154.6" x2="125.5" y2="147.6"></line><path class="st0" d="M153,152.2l-24.1-6.2l-3.5-0.9c-1.2-0.3-2.1,1.1-2.1,2.1c0.1,1.3,1,2.4,2.3,2.7l24.1,6.2l3.5,0.9
		c1.2,0.3,2.1-1.1,2.1-2.1C155.2,153.6,154.3,152.5,153,152.2z"></path><line class="st3" x1="160.5" y1="119" x2="118.4" y2="140.6"></line><path class="st0" d="M159.1,117l-14.2,7.3l-22.6,11.6l-5.2,2.6c-1.7,0.9,1,5,2.8,4.1l14.2-7.3l22.6-11.6l5.2-2.7
		C163.5,120.2,160.9,116.1,159.1,117L159.1,117z"></path><rect class="st1" x="76.6" y="56.4" transform="matrix(0.9496 -0.3135 0.3135 0.9496 -16.566 32.3285)" width="31.2" height="22.6"></rect><path class="st0" d="M110.7,72.1l-26,8.6L81,81.9l2.2,0.3L77,63.4l-0.9-2.7l-2.3,2.5l26-8.6l3.7-1.2l-2.2-0.3l6.2,18.8l0.9,2.7
		c0.5,1.5,5.1-0.5,4.5-2.2l-6.2-18.8l-0.9-2.7c-0.2-0.8-1.7-0.4-2.2-0.3l-26,8.6l-3.7,1.2c-0.9,0.3-2.7,1.3-2.3,2.5l6.2,18.8
		l0.9,2.7c0.2,0.8,1.7,0.4,2.2,0.3l26-8.6l3.7-1.2c0.8-0.3,2.4-1.1,2.3-2.2S111.3,71.9,110.7,72.1z"></path><path class="st1" d="M74.8,62.3c5.2,0.5,9.7,3.9,14.8,4.7c0.4,0.1,0.7,0.1,1.1,0c0.3-0.2,0.6-0.4,0.8-0.7l10.6-13.4"></path><path class="st0" d="M73.3,64c2.8,0.4,5.6,1.3,8.2,2.5c2.5,1,5.8,2.7,8.6,2.1c1.9-0.4,3-1.8,4.1-3.2l3.2-4l6.5-8.2
		c0.6-0.7,1-1.7-0.2-2.1c-1.2-0.1-2.4,0.3-3.2,1.3l-5.6,7.1L92,63.2l-1.4,1.7c-0.3,0.3-0.5,0.6-0.8,0.9l-0.2,0.3
		c1.7-0.4,2.1-0.7,1.3-0.8c-1.1-0.4-2.4-0.6-3.6-1s-2.4-1-3.6-1.5c-2.4-1.1-4.9-1.8-7.4-2.2c-1.2-0.1-2.4,0.4-3.2,1.4
		C72.7,62.5,72.1,64,73.3,64L73.3,64z"></path><path class="st1" d="M80.3,81.9c0.3-4.1,2.3-12,3.4-16"></path><path class="st0" d="M82.8,82.1c0.3-2.7,0.7-5.4,1.4-8.1c0.6-2.7,1.3-5.3,2-8c0.3-1.2-4.6-2-5-0.5c-0.7,2.6-1.4,5.3-2,8
		c-0.7,2.7-1.1,5.3-1.4,8.1c-0.1,0.9,1.8,1.2,2.4,1.2S82.7,83,82.8,82.1L82.8,82.1z"></path><path class="st1" d="M96.9,62.1c3.7,3.4,7.3,6.9,10.8,10.5"></path><path class="st0" d="M95.9,63.5c3.7,3.4,7.3,6.9,10.8,10.5c0.6,0.7,2,1.4,2.7,0.4c0.5-1.1,0.3-2.4-0.6-3.2
		c-3.6-3.5-7.2-7-10.8-10.5c-0.7-0.6-2-1.4-2.7-0.3C94.7,61.4,95,62.7,95.9,63.5z"></path><rect class="st1" x="244.4" y="48.1" transform="matrix(1 -5.759555e-03 5.759555e-03 1 -0.3591 1.5279)" width="41.5" height="30"></rect><path class="st0" d="M284.9,76.2l-36.3,0.2h-5.2l3.4,2.6l-0.1-26.3V49l-1.3,1l36.3-0.2h5.2l-3.4-2.6l0.1,26.3v3.8
		c0,2,4.6,3.7,4.6,1.6l-0.1-26.3v-3.8c0-1.6-2-2.6-3.4-2.6l-36.3,0.2h-5.2c-0.6,0-1.3,0.3-1.3,1l0.1,26.3v3.8c0,1.6,2,2.6,3.4,2.6
		l36.3-0.2h5.2c0.6,0,1.2-0.5,1.2-1.1c0-0.3-0.1-0.5-0.2-0.8C287.3,76.9,286.1,76.2,284.9,76.2z"></path><path class="st1" d="M245.2,49.3c6.4,2.7,10.7,8.9,16.8,12c0.4,0.2,0.9,0.4,1.4,0.4c0.5-0.1,1-0.3,1.3-0.6l18.9-12.6"></path><path class="st0" d="M244.3,50c3.3,1.4,6,4,8.7,6.3s5.9,5.1,9.4,6.2c1,0.4,2.2,0.5,3.3,0.2c0.9-0.4,1.8-0.9,2.5-1.5l5.8-3.9
		l11.9-7.9c0.8-0.5-1-1.5-1.3-1.7c-0.8-0.4-2.3-0.9-3.1-0.3l-10.7,7.1l-5.4,3.6l-2.7,1.8l-0.5,0.3c-0.8,0.3-0.4,0.5,1.1,0.5
		c-0.3-0.2-0.5-0.3-0.8-0.4c-2.8-1.8-5.4-3.8-7.8-6c-2.6-2.3-5.5-4.2-8.6-5.7c-0.7-0.3-2.5-1-3.1-0.3S243.9,49.8,244.3,50L244.3,50z
		"></path><path class="st1" d="M244.2,76.1c2.1-5.1,7.8-14.3,10.8-18.8"></path><path class="st0" d="M246.4,75.3c1.4-3.3,3.1-6.5,5.1-9.6c1.8-3.1,3.8-6.2,5.8-9.2c0.2-0.4-1.7,0.3-1.8,0.3
		c-0.6,0.2-1.2,0.5-1.8,0.8c-0.4,0.1-0.7,0.4-1,0.6c-2,3-3.9,6.1-5.8,9.2c-1.9,3.1-3.6,6.3-5,9.6c-0.2,0.4,1.6-0.2,1.8-0.3
		c0.6-0.2,1.2-0.5,1.8-0.8C245.8,75.8,246.4,75.6,246.4,75.3L246.4,75.3z"></path><path class="st1" d="M273.3,58c3.2,5.8,6.3,11.7,9.4,17.7"></path><path class="st0" d="M270.9,57.9c3.2,5.9,6.3,11.7,9.4,17.7c0.4,0.8,2.3,0.8,3,0.8c0.4,0,2.2,0,1.8-0.7c-3-5.9-6.2-11.8-9.4-17.7
		c-0.4-0.8-2.3-0.8-3-0.8C272.4,57.2,270.5,57.2,270.9,57.9z"></path><rect class="st1" x="386.3" y="113.2" transform="matrix(0.3751 -0.927 0.927 0.3751 126.6037 455.6636)" width="30" height="41.5"></rect><path class="st0" d="M417.2,154.9l-28.9-11.7l-6.9-2.8l-2-0.8c-0.2,0-0.3-0.1-0.5-0.2c-0.2-0.2,0,0.1,0,0c0.1-0.5,0.3-0.9,0.5-1.3
		l1.2-3l3.6-8.8l6-14.7l-4.8,1.5l28.9,11.7l6.9,2.8l2,0.8c0.2,0,0.3,0.1,0.5,0.2c0.2,0.2,0-0.1,0,0c-0.1,0.5-0.3,0.9-0.5,1.3l-1.2,3
		l-3.6,8.8l-6,14.7c-0.1,0.2,2.4-0.2,2.5-0.3C415.5,155.9,416.9,155.6,417.2,154.9l9.9-24.3l1.4-3.5l-0.1-0.1l-33.6-13.6l-4.8-1.9
		c-0.7-0.3-2.1,0.3-2.7,0.5s-1.7,0.4-2,1l-9.9,24.3l-1.3,3.5l0.1,0.1l33.6,13.6l4.8,1.9c0.8,0.3,2.3-0.3,3-0.6
		C415.8,155.8,417.6,155,417.2,154.9z"></path><path class="st1" d="M388.2,113.6c4.9,4.9,6.5,12.2,11,17.5c0.3,0.4,0.7,0.7,1.1,0.9c0.5,0.1,1,0.1,1.5,0l22.3-4.4"></path><path class="st0" d="M388.7,115.4c2.3,2.4,3.7,5.6,5.2,8.5c1.7,3.2,3.5,7,6.3,9.4c1.5,1.3,3.3,0.6,5.1,0.3l6.5-1.3l13.6-2.7
		c0.6-0.1-1.2-4.6-2.5-4.3l-12.6,2.5l-6.3,1.3l-3.1,0.6c-1.1,0.2-1.5,0.2-2.2-0.6c-2-2.5-3.2-5.4-4.6-8.2c-1.6-3.3-3.7-6.3-6.2-9.1
		c-0.6-0.7-1-0.3-0.9,0.5C387.2,113.5,387.8,114.5,388.7,115.4L388.7,115.4z"></path><path class="st1" d="M377,138.1c3.9-3.9,12.6-10.2,17.2-13.3"></path><path class="st0" d="M379.2,138.5c0.3-0.3-0.1,0.1,0.2-0.2l0.4-0.4c0.3-0.3,0.6-0.6,0.9-0.8c0.6-0.6,1.3-1.1,2-1.7
		c1.5-1.2,3-2.5,4.6-3.6c2.9-2.2,5.8-4.2,8.8-6.2c0.5-0.3,0.7-1,0.4-1.6c-0.2-0.3-0.4-0.4-0.7-0.5c-1.2-0.4-2.5-0.2-3.5,0.5
		c-3,2-6,4.2-9,6.4c-3,2.2-5.9,4.6-8.6,7.2c-0.8,0.9,0.4,1.7,1.2,1.9C377.1,139.7,378.4,139.3,379.2,138.5L379.2,138.5z"></path><path class="st1" d="M410.8,132.4c0.7,6.6,1.4,13.2,1.9,19.9"></path><path class="st0" d="M408.9,131c0.7,6.6,1.4,13.2,1.9,19.9c0.1,1,1.3,1.9,2,2.4c0.2,0.1,2,1.2,1.9,0.4c-0.6-6.7-1.2-13.3-1.9-19.9
		c-0.1-1-1.3-1.9-2-2.4C410.6,131.3,408.8,130.2,408.9,131z"></path><path class="st2" d="M137.7,66.2c16.6-2.3,33.9,4.4,45.1,16.7c2.8,3.1,5.3,6.5,7.2,10.2c2.2,4.2,3.8,8.6,6.3,12.6
		c2.4,4.1,5.9,7.3,10.2,9.4c4.3,1.9,9.1,2.7,13.8,2.3c11.4-1,20.7-8.2,28.8-15.7c2-1.8-2.2-4.6-4-2.9c-7,6.4-15,12.9-24.7,14.4
		c-4.2,0.7-8.5,0.2-12.4-1.6c-3.9-1.8-6.6-5.2-8.6-8.9c-2.2-4-3.8-8.2-6-12.2c-2.1-3.7-4.7-7.2-7.6-10.3c-6-6.4-13.4-11.3-21.5-14.5
		c-9.1-3.6-19-4.8-28.7-3.5c-0.9,0.2-1.5,1-1.3,1.9c0,0.2,0.1,0.4,0.2,0.5C135.1,65.9,136.4,66.5,137.7,66.2z"></path><path class="st2" d="M305.5,67.4c3.2-3.2,7.7-4.5,12-5.3c4.9-1,9.9-1.9,15-2.5c9.4-1,19.8-1.1,28.3,3.4c7,3.7,13,10.2,14.9,18
		c0.5,1.9,0.7,3.9,0.6,5.9c0,1-0.1,1.9-0.3,2.8c-0.1,0.5-0.2,1-0.4,1.5c-0.2,0.4-0.4,0.7-0.7,1.1c-0.8,1.7-0.2,0-0.2,0.1
		c0.2,0,0.4,0.1,0.6,0.1c0.2,0,0.3,0.3,0,0c-0.5-0.5-0.8-1.2-0.8-1.9c0.1-1.7,1.9-2.8,3.4-3.2c3.7-1,8,0.5,11,2.8
		c3.6,2.6,6,6.4,7,10.7c0.4,1.1,1.4,1.9,2.5,2c0.6,0.1,2.5,0.1,2.2-1c-2.1-9.9-11.6-17.5-21.7-17.9c-3.6-0.1-10.5,1.7-9.1,6.7
		c1.2,4.3,8.9,7.4,10.4,1.8c2.7-9.8-2.7-19.8-9.8-26.2c-8.6-7.8-20.4-10.5-31.8-10.4c-6.9,0.2-13.8,1-20.6,2.4
		c-6,1.1-12.5,2.3-17,6.7C299.8,66.5,304.2,68.7,305.5,67.4L305.5,67.4z"></path><path class="st2" d="M138.9,260c-10.7-0.6-21.8-2.6-30.1-9.9c-6.9-6.2-10.3-16.4-6.1-25.1c1-2.1,2.4-3.9,4.2-5.3
		c1.1-0.8,3.4-2.1,4.8-1.2s1,3,0.5,4.2c-0.8,1.7-2.6,2.7-4.4,2.4c-4.8-0.7-6.7-6.4-7.6-10.4c-1-4.5-1.1-9.1-0.5-13.7
		c1.5-10.5,7.1-20,15.6-26.3c0.7-0.6,0.8-1.6,0.2-2.3c-0.1-0.1-0.2-0.2-0.4-0.3c-1-0.8-2.4-0.9-3.5-0.2c-9,6.6-15,16.6-16.7,27.6
		c-0.9,5.5-0.7,11.1,0.7,16.4c1.5,5.9,5,11.7,11.5,12.9c3,0.7,6.2-0.2,8.4-2.4c1.6-1.7,2.3-4.2,1.8-6.5c-0.7-2.8-3.1-4.9-6-5.3
		c-3-0.4-5.9,0.5-8.3,2.3c-4.5,3.4-6.7,9-7.1,14.5c-0.3,5.7,1.4,11.3,4.8,15.9c8.7,12.2,24.3,15.7,38.4,16.5c1,0.1,2.4-0.5,2.3-1.7
		S140,260,138.9,260L138.9,260z"></path></g></svg>